<?xml version="1.0" encoding="UTF-8" standalone="no"?>
<svg
   id="Capa_1"
   enable-background="new 0 0 512 512"
   height="512"
   viewBox="0 0 512 512"
   width="512"
   version="1.1"
   sodipodi:docname="7.svg"
   inkscape:version="1.3.2 (091e20e, 2023-11-25, custom)"
   xmlns:inkscape="http://www.inkscape.org/namespaces/inkscape"
   xmlns:sodipodi="http://sodipodi.sourceforge.net/DTD/sodipodi-0.dtd"
   xmlns="http://www.w3.org/2000/svg"
   xmlns:svg="http://www.w3.org/2000/svg">
  <defs
     id="defs2" />
  <sodipodi:namedview
     id="namedview2"
     pagecolor="#ffffff"
     bordercolor="#000000"
     borderopacity="0.25"
     inkscape:showpageshadow="2"
     inkscape:pageopacity="0.0"
     inkscape:pagecheckerboard="0"
     inkscape:deskcolor="#d1d1d1"
     inkscape:zoom="1.5878906"
     inkscape:cx="256"
     inkscape:cy="256"
     inkscape:window-width="1872"
     inkscape:window-height="1009"
     inkscape:window-x="1912"
     inkscape:window-y="-7"
     inkscape:window-maximized="1"
     inkscape:current-layer="Capa_1" />
  <g
     id="g2">
    <g
       id="g1">
      <path
         d="m186.548 512c-6.049 0-12.193-1.227-18.086-3.816-22.75-10.001-33.087-36.552-23.085-59.303l157.761-358.883h-163.213c-24.852 0-44.999-20.147-44.999-44.999s20.147-44.999 44.999-44.999h232.149c15.2 0 29.372 7.674 37.682 20.402 8.308 12.728 9.63 28.79 3.513 42.706l-185.503 421.99c-7.411 16.859-23.911 26.901-41.218 26.902z"
         id="path1" />
    </g>
  </g>
  <path
     d="M 491.76536,414.04762 H 450.95238 V 373.23465 C 450.95238,363.20762 442.53072,355 432.5,355 c -10.03071,0 -18.45238,8.20762 -18.45238,18.23465 v 40.81297 H 373.23465 C 363.20762,414.04762 355,422.46929 355,432.5 c 0,10.03072 8.20762,18.45238 18.23465,18.45238 h 40.81297 v 40.81298 c 0,10.02702 8.42167,18.23464 18.45238,18.23464 10.03072,0 18.45238,-8.20762 18.45238,-18.23464 v -40.81298 h 40.81298 C 501.79238,450.95238 510,442.53072 510,432.5 c 0,-10.03071 -8.20762,-18.45238 -18.23464,-18.45238 z"
     id="path1-5"
     style="stroke-width:3.69048" />
</svg>
