<?xml version="1.0" encoding="UTF-8"?>
<svg width="1200pt" height="1200pt" version="1.1" viewBox="0 0 1200 1200" xmlns="http://www.w3.org/2000/svg">
 <path d="m512.53 31.379h-437.4c-24.191 0-43.742 19.598-43.742 43.742v437.4c0 24.145 19.551 43.742 43.742 43.742h437.4c24.191 0 43.742-19.598 43.742-43.742l-0.011719-437.4c0-24.145-19.551-43.742-43.734-43.742z"/>
 <path d="m1124.9 31.379h-437.4c-24.191 0-43.742 19.598-43.742 43.742v437.4c0 24.145 19.551 43.742 43.742 43.742h437.4c24.191 0 43.742-19.598 43.742-43.742v-437.4c0-24.145-19.551-43.742-43.742-43.742z"/>
 <path d="m512.53 643.74h-437.4c-24.191 0-43.742 19.551-43.742 43.742v437.4c0 24.191 19.551 43.742 43.742 43.742h437.4c24.191 0 43.742-19.551 43.742-43.742l-0.007813-437.4c0-24.18-19.551-43.734-43.734-43.734z"/>
 <path d="m1124.9 862.43h-174.96v-174.96c0-24.191-19.551-43.742-43.742-43.742-24.191 0-43.742 19.551-43.742 43.742v174.96h-174.96c-24.191 0-43.742 19.551-43.742 43.742 0 24.191 19.551 43.742 43.742 43.742h174.96v174.96c0 24.191 19.551 43.742 43.742 43.742 24.191 0 43.742-19.551 43.742-43.742v-174.96h174.96c24.191 0 43.742-19.551 43.742-43.742-0.003906-24.191-19.555-43.742-43.746-43.742z"/>
</svg>
