<?xml version="1.0" encoding="UTF-8"?>
<svg width="1200pt" height="1200pt" version="1.1" viewBox="0 0 1200 1200" xmlns="http://www.w3.org/2000/svg">
 <path d="m120 413.4h591.4c84.398 0 153 68.602 153 153 0 84.402-68.602 153.2-153 153.2l-112.2 0.003906v-47.199c0-7.6016-4.1992-14.398-11-17.801-6.8008-3.4023-15-2.8008-21 1.8008l-219.8 164.8c-5 3.8008-8 9.8008-8 16 0 6.3984 3 12.199 8 16l219.8 164.8c3.6016 2.7969 7.8008 3.9961 12 3.9961 3 0 6.1992-0.60156 9-2 6.8008-3.4023 11-10.398 11-18v-47h112.2c214.2 0 388.6-174.4 388.6-388.6 0-214.2-174.4-388.4-388.6-388.4h-591.4c-11.199 0-20 8.8008-20 20v195.4c0 11 8.8008 20 20 20z"/>
</svg>
