<?xml version="1.0" encoding="UTF-8"?>
<svg width="1200pt" height="1200pt" version="1.1" viewBox="0 0 1200 1200" xmlns="http://www.w3.org/2000/svg">
 <path d="m74 600c0-13.262 5.2695-25.98 14.645-35.355s22.094-14.645 35.355-14.645h1e3v100h-1e3c-13.262 0-25.98-5.2695-35.355-14.645s-14.645-22.094-14.645-35.355z"/>
 <path d="m834.5 246.5 288.5 288.5c17.344 17.184 27.102 40.586 27.102 65s-9.7578 47.816-27.102 65l-288.5 288.5c-9.3867 9.4648-22.168 14.789-35.5 14.789s-26.113-5.3242-35.5-14.789c-9.3125-9.3672-14.539-22.039-14.539-35.25s5.2266-25.883 14.539-35.25l283-283-283-283c-9.3125-9.3672-14.539-22.039-14.539-35.25s5.2266-25.883 14.539-35.25c9.3867-9.4648 22.168-14.789 35.5-14.789s26.113 5.3242 35.5 14.789z"/>
</svg>
