<?xml version="1.0" encoding="UTF-8"?>
<svg width="1200pt" height="1200pt" version="1.1" viewBox="0 0 1200 1200" xmlns="http://www.w3.org/2000/svg">
 <path d="m454.97 219.71c-60.562-134.68-184.97-122.11-244.74-116.06-7.0312 0.70312-13.312 1.3594-18.656 1.6406-33.422 2.0156-40.781-51-40.828-51.516-0.98438-7.2188-6.0938-13.219-13.078-15.375s-14.578-0.046875-19.453 5.3906c-124.26 138.14-9.7031 351.98-4.7344 361.03 35.25 64.453 102 101.02 170.76 101.02 31.453 0 63.375-7.6406 92.906-23.812 93.984-51.375 128.63-169.69 77.859-262.31z"/>
 <path d="m591.56 482.34-89.625-93.141c-19.031 53.719-56.438 98.109-106.83 125.68-8.5312 4.6875-17.344 8.7656-26.344 12.328l90.281 86.906c27.469-1.6406 65.953-10.641 96.562-43.875 26.859-29.156 34.547-63 36-87.938z"/>
 <path d="m689.53 584.16-65.25-67.781c-5.7656 25.5-17.625 53.766-41.156 79.359-27.891 30.281-60.891 44.672-90.141 51.188l67.828 65.297c27.141-2.2031 63.656-11.859 92.953-43.641 25.641-27.797 33.797-59.812 35.719-84.375z"/>
 <path d="m1117.5 1028.9-395.68-411.1c-6 24.656-17.906 51.703-40.5 76.219-26.906 29.203-58.594 43.594-87.047 50.438l411.56 396.14c15.188 14.625 34.969 21.891 54.75 21.891 20.297 0 40.547-7.6875 55.875-22.969 30.234-30.188 30.656-79.828 1.0781-110.62z"/>
</svg>
