<?xml version="1.0" encoding="UTF-8"?>
<svg width="1200pt" height="1200pt" version="1.1" viewBox="0 0 1200 1200" xmlns="http://www.w3.org/2000/svg">
 <path d="m802.6 543.77h77.5v62.5h-77.5z"/>
 <path d="m1019.6 291.22h-212.1v-89.988c0-28.926-23.516-52.461-52.441-52.461h-310.1c-28.926 0-52.461 23.535-52.461 52.461v89.988h-212.11c-44.398 0-80.398 36.203-80.398 80.402v132.15h1e3v-132.15c0-44.199-36-80.402-80.398-80.402zm-587.1-89.988c0-6.875 5.5859-12.461 12.461-12.461h310.1c6.8555 0 12.441 5.5859 12.441 12.461v89.988h-335z"/>
 <path d="m920.1 626.27c0 11.055-8.9453 20-20 20h-117.5c-11.055 0-20-8.9453-20-20v-82.5h-325.18v82.5c0 11.055-8.9453 20-20 20h-117.5c-11.055 0-20-8.9453-20-20v-82.5h-179.93v427.05c0 44.402 36 80.398 80.398 80.398h839.2c44.402 0 80.402-35.996 80.402-80.398v-427.05h-179.9z"/>
 <path d="m319.93 543.77h77.5v62.5h-77.5z"/>
</svg>
