<?xml version="1.0" encoding="UTF-8" standalone="no"?>
<svg
   width="1200pt"
   height="1200pt"
   version="1.1"
   viewBox="0 0 1200 1200"
   id="svg2"
   sodipodi:docname="delete.svg"
   inkscape:version="1.3.2 (091e20e, 2023-11-25, custom)"
   xmlns:inkscape="http://www.inkscape.org/namespaces/inkscape"
   xmlns:sodipodi="http://sodipodi.sourceforge.net/DTD/sodipodi-0.dtd"
   xmlns="http://www.w3.org/2000/svg"
   xmlns:svg="http://www.w3.org/2000/svg">
  <defs
     id="defs2" />
  <sodipodi:namedview
     id="namedview2"
     pagecolor="#ffffff"
     bordercolor="#000000"
     borderopacity="0.25"
     inkscape:showpageshadow="2"
     inkscape:pageopacity="0.0"
     inkscape:pagecheckerboard="0"
     inkscape:deskcolor="#d1d1d1"
     inkscape:document-units="pt"
     inkscape:zoom="0.508125"
     inkscape:cx="800"
     inkscape:cy="800"
     inkscape:window-width="1872"
     inkscape:window-height="1009"
     inkscape:window-x="-8"
     inkscape:window-y="-8"
     inkscape:window-maximized="1"
     inkscape:current-layer="svg2" />
  <g
     id="g2"
     transform="matrix(1.0222222,0,0,1.0222222,-37.410241,-32.311116)">
    <path
       d="m 251.28127,1129.9323 c 0,42.9529 34.76933,75.6784 75.67842,75.6784 h 593.18184 c 42.95285,0 75.67842,-34.7694 75.67842,-75.6784 l 0.006,-732.27272 H 251.28111 Z M 772.87221,594.02321 c 0,-14.31545 10.22726,-24.54204 24.54204,-24.54204 14.31547,0 24.54205,10.22727 24.54205,24.54204 v 447.95459 c 0,14.3154 -10.22726,24.542 -24.54205,24.542 -14.31546,0.013 -24.54204,-10.2206 -24.54204,-22.4984 z m -175.90911,0 c 0,-14.31545 10.22729,-24.54204 24.54205,-24.54204 14.31546,0 24.54206,10.22727 24.54206,24.54204 v 447.95459 c 0,14.3154 -10.22728,24.542 -24.54206,24.542 -14.31545,0 -24.54205,-12.2714 -24.54205,-24.542 z m -173.86364,0 c 0,-14.31545 10.22728,-24.54204 24.54205,-24.54204 14.31545,0 24.54204,10.22727 24.54204,24.54204 v 447.95459 c 0,14.3154 -10.22728,24.542 -24.54204,24.542 -14.31545,0 -24.54205,-12.2714 -24.54205,-24.542 z"
       id="path1"
       style="stroke-width:1.70454" />
    <path
       d="M 999.9206,160.38682 H 869.0098 v -36.8216 c 0,-51.136361 -40.90909,-92.045449 -92.04546,-92.045449 H 468.10069 c -51.13636,0 -92.04546,40.909088 -92.04546,92.045449 v 36.8216 H 245.14442 c -40.90908,0 -71.5909,32.72558 -71.5909,71.59091 V 344.47775 H 1073.5535 V 231.97773 c 0,-40.90908 -32.7255,-71.59091 -73.63459,-71.59091 z M 468.1024,92.88341 h 308.86365 c 16.36637,0 30.68182,14.31546 30.68182,30.68181 v 36.8216 h -370.2273 v -36.8216 c 0,-16.35971 14.3221,-30.68181 30.68183,-30.68181 z"
       id="path2"
       style="stroke-width:1.70454" />
  </g>
</svg>
