<?xml version="1.0" encoding="UTF-8" standalone="no"?>
<svg
   width="1200pt"
   height="1200pt"
   version="1.1"
   viewBox="0 0 1200 1200"
   id="svg2"
   sodipodi:docname="482064-minimize-resize-resize application-resize page-resize arrow-resize square-zoom-edit-alter-resize window-window.svg"
   inkscape:version="1.3.2 (091e20e, 2023-11-25, custom)"
   xmlns:inkscape="http://www.inkscape.org/namespaces/inkscape"
   xmlns:sodipodi="http://sodipodi.sourceforge.net/DTD/sodipodi-0.dtd"
   xmlns="http://www.w3.org/2000/svg"
   xmlns:svg="http://www.w3.org/2000/svg">
  <defs
     id="defs2">
    <inkscape:path-effect
       effect="fillet_chamfer"
       id="path-effect4"
       is_visible="true"
       lpeversion="1"
       nodesatellites_param="F,0,0,1,0,30,0,1 @ F,0,0,1,0,30,0,1 @ F,0,0,1,0,30,0,1 @ F,0,0,1,0,30,0,1 | F,0,0,1,0,30,0,1 @ F,0,0,1,0,30,0,1 @ F,0,0,1,0,30,0,1 @ F,0,0,1,0,30,0,1"
       radius="40"
       unit="px"
       method="auto"
       mode="F"
       chamfer_steps="1"
       flexible="false"
       use_knot_distance="true"
       apply_no_radius="true"
       apply_with_radius="true"
       only_selected="false"
       hide_knots="false" />
    <inkscape:path-effect
       effect="fillet_chamfer"
       id="path-effect3"
       is_visible="true"
       lpeversion="1"
       nodesatellites_param="F,0,0,1,0,30,0,1 @ F,0,0,1,0,30,0,1 @ F,0,0,1,0,30,0,1 @ F,0,0,1,0,30,0,1 @ F,0,0,1,0,30,0,1 @ F,0,0,1,0,30,0,1 @ F,0,0,1,0,30,0,1 @ F,0,0,1,0,30,0,1 @ F,0,0,1,0,30,0,1 @ F,0,0,1,0,30,0,1 @ F,0,0,1,0,30,0,1 @ F,0,0,1,0,30,0,1 @ F,0,0,1,0,30,0,1 @ F,0,0,1,0,30,0,1 @ F,0,0,1,0,30,0,1 @ F,0,0,1,0,30,0,1"
       radius="40"
       unit="px"
       method="auto"
       mode="F"
       chamfer_steps="1"
       flexible="false"
       use_knot_distance="true"
       apply_no_radius="true"
       apply_with_radius="true"
       only_selected="false"
       hide_knots="false" />
  </defs>
  <sodipodi:namedview
     id="namedview2"
     pagecolor="#ffffff"
     bordercolor="#000000"
     borderopacity="0.25"
     inkscape:showpageshadow="2"
     inkscape:pageopacity="0.0"
     inkscape:pagecheckerboard="0"
     inkscape:deskcolor="#d1d1d1"
     inkscape:document-units="pt"
     inkscape:zoom="0.508125"
     inkscape:cx="799.01599"
     inkscape:cy="800"
     inkscape:window-width="1872"
     inkscape:window-height="1009"
     inkscape:window-x="1912"
     inkscape:window-y="-7"
     inkscape:window-maximized="1"
     inkscape:current-layer="svg2" />
  <path
     d="m 100,130 v 440 a 30,30 45 0 0 30,30 h 40 a 30,30 135 0 0 30,-30 V 230 a 30,30 135 0 1 30,-30 h 670 a 12.426407,12.426407 67.5 0 1 8.7868,21.2132 L 686.2132,443.7868 a 30,30 180 0 1 -42.4264,0 L 621.2132,421.2132 A 12.426407,12.426407 157.5 0 0 600,430 v 140 a 30,30 45 0 0 30,30 h 140 a 12.426407,12.426407 112.5 0 0 8.7868,-21.2132 l -22.5736,-22.5736 a 30,30 90 0 1 0,-42.4264 L 978.7868,291.2132 A 12.426407,12.426407 22.5 0 1 1000,300 v 670 a 30,30 135 0 1 -30,30 H 630 a 30,30 135 0 0 -30,30 v 40 a 30,30 45 0 0 30,30 h 440 a 30,30 135 0 0 30,-30 V 130 a 30,30 45 0 0 -30,-30 H 130 a 30,30 135 0 0 -30,30 z"
     id="path1"
     inkscape:path-effect="#path-effect3"
     inkscape:original-d="m100 100v500h100v-400h730l-265 265-65-65v200h200l-65-65 265-265v730h-400v100h500v-1e3z" />
  <path
     d="m 130,1100 h 340 a 30,30 135 0 0 30,-30 V 730 A 30,30 45 0 0 470,700 H 130 a 30,30 135 0 0 -30,30 v 340 a 30,30 45 0 0 30,30 z M 230,800 h 140 a 30,30 45 0 1 30,30 v 140 a 30,30 135 0 1 -30,30 H 230 A 30,30 45 0 1 200,970 V 830 a 30,30 135 0 1 30,-30 z"
     id="path2"
     inkscape:path-effect="#path-effect4"
     inkscape:original-d="m100 1100h400v-400h-400zm100-300h200v200h-200z" />
</svg>
