<?xml version="1.0" encoding="utf-8"?>
<!-- Generator: Adobe Illustrator 28.1.0, SVG Export Plug-In . SVG Version: 6.00 Build 0)  -->
<svg version="1.1" id="Layer_3" xmlns="http://www.w3.org/2000/svg" xmlns:xlink="http://www.w3.org/1999/xlink" x="0px" y="0px"
	 viewBox="0 0 1000 1000" style="enable-background:new 0 0 1000 1000;" xml:space="preserve">
<style type="text/css">
	.st0{fill:#429321;}
	.st1{fill:#9BD15D;}
	.st2{fill:#F7F9E1;}
	.st3{fill:#0F6608;}
	.st4{fill:#DD3A1F;}
	.st5{fill:#FF8548;}
	.st6{fill:#FFED97;}
	.st7{fill:#CC1D0A;}
	.st8{fill:#FFFDB3;}
	.st9{fill:#F9F4D7;}
	.st10{fill:#FFFFFF;}
	.st11{fill:#FFFBE1;}
	.st12{fill:#E2DBA8;}
	.st13{fill:#00A9F4;}
	.st14{fill:#5ABCFF;}
	.st15{fill:#D4E6FF;}
	.st16{fill:#8DCCFF;}
	.st17{fill:#087FC1;}
	.st18{fill:#471429;}
	.st19{fill:#5B3947;}
	.st20{fill:#847B82;}
	.st21{fill:#19030B;}
</style>
<circle class="st0" cx="116.86" cy="409.04" r="85.88"/>
<path class="st1" d="M168.05,411.14c9.32-42.38-23.79-66.12-60.39-54.5c-3.22,1.02-3.69,6.33-0.43,6.79
	c20.75,2.92,47.77,33.7,53.43,50.53C162.34,418.94,167.34,414.36,168.05,411.14z"/>
<path class="st2" d="M162.63,385.5c1.81-14.27-11.1-25.96-24.81-25.21c-4.07,0.22-5.54,6.25-2.53,8.06
	c8.24,4.96,15.11,13.19,19.38,19.15C157.68,391.7,162.25,388.51,162.63,385.5z"/>
<path class="st1" d="M179.84,457.7c-25.76,38.64-68.7,41.51-107.35,24.33s-45.44-77.61-37.03-100.35c8.41-22.74,17-4.13,14.13,15.91
	c-2.86,20.04,2.86,55.82,27.19,67.27c24.33,11.45,67.27,15.43,84.45-5.17S179.84,457.7,179.84,457.7z"/>
<path class="st3" d="M88.24,474c-44.16-14.56-46.92-91.71-34.53-89.18c12.39,2.52,10.14,45.61,43.36,59.69s60.09-3.55,67.73,2.82
	C180.09,460.06,132.4,488.56,88.24,474z"/>
<circle class="st4" cx="231.88" cy="883.19" r="85.88"/>
<path class="st5" d="M283.06,885.29c9.32-42.38-23.79-66.12-60.39-54.5c-3.22,1.02-3.69,6.33-0.43,6.79
	c20.75,2.92,47.77,33.7,53.43,50.53C277.35,893.08,282.36,888.5,283.06,885.29z"/>
<path class="st6" d="M277.64,859.65c1.81-14.27-11.1-25.96-24.81-25.21c-4.07,0.22-5.54,6.25-2.53,8.06
	c8.24,4.96,15.11,13.19,19.38,19.15C272.69,865.85,277.26,862.65,277.64,859.65z"/>
<path class="st5" d="M294.85,931.85c-25.76,38.64-68.7,41.51-107.35,24.33s-45.44-77.61-37.03-100.35s17-4.13,14.13,15.91
	s2.86,55.82,27.19,67.27c24.33,11.45,67.27,15.43,84.45-5.17C293.42,913.24,294.85,931.85,294.85,931.85z"/>
<path class="st7" d="M203.25,948.15c-44.16-14.56-46.92-91.71-34.53-89.18s10.14,45.61,43.36,59.69s60.09-3.55,67.73,2.82
	C295.1,934.2,247.41,962.71,203.25,948.15z"/>
<circle class="st8" cx="496.97" cy="118.05" r="85.88"/>
<path class="st9" d="M548.16,120.15c9.32-42.38-23.79-66.12-60.39-54.5c-3.22,1.02-3.69,6.33-0.43,6.79
	c20.75,2.92,47.77,33.7,53.43,50.53C542.45,127.95,547.45,123.36,548.16,120.15z"/>
<path class="st10" d="M542.74,94.51c1.81-14.27-11.1-25.96-24.81-25.21c-4.07,0.22-5.54,6.25-2.53,8.06
	c8.24,4.96,15.11,13.19,19.38,19.15C537.79,100.71,542.36,97.52,542.74,94.51z"/>
<path class="st11" d="M559.95,166.71c-25.76,38.64-68.7,41.51-107.35,24.33s-45.44-77.61-37.03-100.35s17-4.13,14.13,15.91
	s2.86,55.82,27.19,67.27c24.33,11.45,67.27,15.43,84.45-5.17C558.52,148.1,559.95,166.71,559.95,166.71z"/>
<path class="st12" d="M468.35,183.01c-44.16-14.56-46.92-91.71-34.53-89.18c12.39,2.52,10.14,45.61,43.36,59.69
	c33.22,14.08,60.09-3.55,67.73,2.82C560.2,169.06,512.51,197.57,468.35,183.01z"/>
<circle class="st13" cx="882.62" cy="406.2" r="85.88"/>
<path class="st14" d="M933.81,408.3c9.32-42.38-23.79-66.12-60.39-54.5c-3.22,1.02-3.69,6.33-0.43,6.79
	c20.75,2.92,47.77,33.7,53.43,50.53C928.1,416.09,933.1,411.51,933.81,408.3z"/>
<path class="st15" d="M928.39,382.66c1.81-14.27-11.1-25.96-24.81-25.21c-4.07,0.22-5.54,6.25-2.53,8.06
	c8.24,4.96,15.11,13.19,19.38,19.15C923.44,388.86,928.01,385.66,928.39,382.66z"/>
<path class="st16" d="M945.6,454.86c-25.76,38.64-68.7,41.51-107.35,24.33c-38.64-17.18-45.44-77.61-37.03-100.35
	c8.41-22.74,17-4.13,14.13,15.91s2.86,55.82,27.19,67.27c24.33,11.45,67.27,15.43,84.45-5.17
	C944.17,436.25,945.6,454.86,945.6,454.86z"/>
<path class="st17" d="M853.99,471.16c-44.16-14.56-46.92-91.71-34.53-89.18s10.14,45.61,43.36,59.69
	c33.22,14.08,60.09-3.55,67.73,2.82C945.85,457.21,898.16,485.72,853.99,471.16z"/>
<circle class="st18" cx="762.91" cy="883.72" r="85.88"/>
<path class="st19" d="M814.09,885.82c9.32-42.38-23.79-66.12-60.39-54.5c-3.22,1.02-3.69,6.33-0.43,6.79
	c20.75,2.92,47.77,33.7,53.43,50.53C808.38,893.62,813.39,889.04,814.09,885.82z"/>
<path class="st20" d="M808.67,860.18c1.81-14.27-11.1-25.96-24.81-25.21c-4.07,0.22-5.54,6.25-2.53,8.06
	c8.24,4.96,15.11,13.19,19.38,19.15C803.73,866.38,808.29,863.19,808.67,860.18z"/>
<path class="st19" d="M825.88,932.39c-25.76,38.64-68.7,41.51-107.35,24.33c-38.64-17.18-45.44-77.61-37.03-100.35
	s17-4.13,14.13,15.91c-2.86,20.04,2.86,55.82,27.19,67.27c24.33,11.45,67.27,15.43,84.45-5.17
	C824.45,913.78,825.88,932.39,825.88,932.39z"/>
<path class="st21" d="M734.28,948.69c-44.16-14.56-46.92-91.71-34.53-89.18s10.14,45.61,43.36,59.69
	c33.22,14.08,60.09-3.55,67.73,2.82C826.14,934.74,778.44,963.24,734.28,948.69z"/>
<circle class="st0" cx="328.44" cy="339.54" r="52.2"/>
<path class="st1" d="M359.55,340.82c5.66-25.76-14.46-40.19-36.71-33.13c-1.96,0.62-2.24,3.85-0.26,4.13
	c12.61,1.77,29.04,20.48,32.48,30.71C356.08,345.56,359.12,342.77,359.55,340.82z"/>
<path class="st2" d="M356.26,325.23c1.1-8.68-6.75-15.78-15.08-15.32c-2.47,0.14-3.37,3.8-1.54,4.9c5.01,3.02,9.18,8.02,11.78,11.64
	C353.25,329,356.03,327.06,356.26,325.23z"/>
<path class="st1" d="M366.72,369.12c-15.66,23.49-41.76,25.23-65.25,14.79c-23.49-10.44-27.62-47.18-22.51-61
	c5.11-13.82,10.33-2.51,8.59,9.67s1.74,33.93,16.53,40.89s40.89,9.38,51.33-3.14C365.85,357.81,366.72,369.12,366.72,369.12z"/>
<path class="st3" d="M311.04,379.03c-26.84-8.85-28.52-55.75-20.99-54.21c7.53,1.53,6.16,27.73,26.36,36.28
	c20.2,8.56,36.52-2.16,41.17,1.71C366.87,370.55,337.88,387.88,311.04,379.03z"/>
<circle class="st4" cx="245.71" cy="621.35" r="52.2"/>
<path class="st5" d="M276.83,622.62c5.66-25.76-14.46-40.19-36.71-33.13c-1.96,0.62-2.24,3.85-0.26,4.13
	c12.61,1.77,29.04,20.48,32.48,30.71C273.35,627.36,276.4,624.58,276.83,622.62z"/>
<path class="st6" d="M273.53,607.04c1.1-8.68-6.75-15.78-15.08-15.32c-2.47,0.14-3.37,3.8-1.54,4.9c5.01,3.02,9.18,8.02,11.78,11.64
	C270.52,610.81,273.3,608.87,273.53,607.04z"/>
<path class="st5" d="M283.99,650.93c-15.66,23.49-41.76,25.23-65.25,14.79s-27.62-47.18-22.51-61c5.11-13.82,10.33-2.51,8.59,9.67
	c-1.74,12.18,1.74,33.93,16.53,40.89c14.79,6.96,40.89,9.38,51.33-3.14C283.12,639.62,283.99,650.93,283.99,650.93z"/>
<path class="st7" d="M228.31,660.84c-26.84-8.85-28.52-55.75-20.99-54.21s6.16,27.73,26.36,36.28c20.2,8.56,36.52-2.16,41.17,1.71
	C284.15,652.36,255.15,669.68,228.31,660.84z"/>
<circle class="st8" cx="616.06" cy="300.17" r="52.2"/>
<path class="st9" d="M647.17,301.45c5.66-25.76-14.46-40.19-36.71-33.13c-1.96,0.62-2.24,3.85-0.26,4.13
	c12.61,1.77,29.04,20.48,32.48,30.71C643.7,306.19,646.74,303.4,647.17,301.45z"/>
<path class="st10" d="M643.88,285.86c1.1-8.68-6.75-15.78-15.08-15.32c-2.47,0.14-3.37,3.8-1.54,4.9
	c5.01,3.02,9.18,8.02,11.78,11.64C640.87,289.63,643.65,287.69,643.88,285.86z"/>
<path class="st11" d="M654.34,329.75c-15.66,23.49-41.76,25.23-65.25,14.79c-23.49-10.44-27.62-47.18-22.51-61
	c5.11-13.82,10.33-2.51,8.59,9.67c-1.74,12.18,1.74,33.93,16.53,40.89c14.79,6.96,40.89,9.38,51.33-3.14
	C653.47,318.44,654.34,329.75,654.34,329.75z"/>
<path class="st12" d="M598.66,339.66c-26.84-8.85-28.52-55.75-20.99-54.21c7.53,1.53,6.16,27.73,26.36,36.28s36.52-2.16,41.17,1.71
	C654.49,331.18,625.5,348.51,598.66,339.66z"/>
<circle class="st13" cx="732.48" cy="567.7" r="52.2"/>
<path class="st14" d="M763.6,568.98c5.66-25.76-14.46-40.19-36.71-33.13c-1.96,0.62-2.24,3.85-0.26,4.13
	c12.61,1.77,29.04,20.48,32.48,30.71C760.12,573.72,763.17,570.94,763.6,568.98z"/>
<path class="st15" d="M760.3,553.4c1.1-8.68-6.75-15.78-15.08-15.32c-2.47,0.14-3.37,3.8-1.54,4.9c5.01,3.02,9.18,8.02,11.78,11.64
	C757.29,557.17,760.07,555.22,760.3,553.4z"/>
<path class="st16" d="M770.76,597.29c-15.66,23.49-41.76,25.23-65.25,14.79c-23.49-10.44-27.62-47.18-22.51-61s10.33-2.51,8.59,9.67
	c-1.74,12.18,1.74,33.93,16.53,40.89c14.79,6.96,40.89,9.38,51.33-3.14C769.89,585.97,770.76,597.29,770.76,597.29z"/>
<path class="st17" d="M715.08,607.19c-26.84-8.85-28.52-55.75-20.99-54.21c7.53,1.53,6.16,27.73,26.36,36.28s36.52-2.16,41.17,1.71
	C770.92,598.72,741.92,616.04,715.08,607.19z"/>
<circle class="st18" cx="522.59" cy="781.07" r="52.2"/>
<path class="st19" d="M553.7,782.35c5.66-25.76-14.46-40.19-36.71-33.13c-1.96,0.62-2.24,3.85-0.26,4.13
	c12.61,1.77,29.04,20.48,32.48,30.71C550.23,787.09,553.27,784.31,553.7,782.35z"/>
<path class="st20" d="M550.41,766.77c1.1-8.68-6.75-15.78-15.08-15.32c-2.47,0.14-3.37,3.8-1.54,4.9
	c5.01,3.02,9.18,8.02,11.78,11.64C547.4,770.53,550.18,768.59,550.41,766.77z"/>
<path class="st19" d="M560.87,810.65c-15.66,23.49-41.76,25.23-65.25,14.79s-27.62-47.18-22.51-61c5.11-13.82,10.33-2.51,8.59,9.67
	c-1.74,12.18,1.74,33.93,16.53,40.89c14.79,6.96,40.89,9.38,51.33-3.14C560,799.34,560.87,810.65,560.87,810.65z"/>
<path class="st21" d="M505.19,820.56c-26.84-8.85-28.52-55.75-20.99-54.21c7.53,1.53,6.16,27.73,26.36,36.28
	c20.2,8.56,36.52-2.16,41.17,1.71C561.02,812.08,532.03,829.41,505.19,820.56z"/>
<circle class="st0" cx="465.51" cy="383.46" r="28.31"/>
<path class="st1" d="M482.38,384.15c3.07-13.97-7.84-21.8-19.91-17.96c-1.06,0.34-1.22,2.09-0.14,2.24
	c6.84,0.96,15.75,11.11,17.61,16.66C480.5,386.72,482.15,385.21,482.38,384.15z"/>
<path class="st2" d="M480.6,375.7c0.6-4.71-3.66-8.56-8.18-8.31c-1.34,0.07-1.83,2.06-0.83,2.66c2.72,1.64,4.98,4.35,6.39,6.31
	C478.96,377.75,480.47,376.69,480.6,375.7z"/>
<path class="st1" d="M486.27,399.5c-8.49,12.74-22.65,13.68-35.39,8.02c-12.74-5.66-14.98-25.59-12.21-33.08s5.6-1.36,4.66,5.24
	c-0.94,6.61,0.94,18.4,8.96,22.18c8.02,3.77,22.18,5.09,27.84-1.7C485.8,393.37,486.27,399.5,486.27,399.5z"/>
<path class="st3" d="M456.07,404.88c-14.56-4.8-15.47-30.23-11.38-29.4c4.08,0.83,3.34,15.04,14.29,19.68s19.81-1.17,22.33,0.93
	C486.35,400.28,470.63,409.68,456.07,404.88z"/>
<circle class="st4" cx="356.36" cy="487.42" r="28.31"/>
<path class="st5" d="M373.23,488.11c3.07-13.97-7.84-21.8-19.91-17.96c-1.06,0.34-1.22,2.09-0.14,2.24
	c6.84,0.96,15.75,11.11,17.61,16.66C371.35,490.68,373,489.17,373.23,488.11z"/>
<path class="st6" d="M371.45,479.66c0.6-4.71-3.66-8.56-8.18-8.31c-1.34,0.07-1.83,2.06-0.83,2.66c2.72,1.64,4.98,4.35,6.39,6.31
	C369.82,481.7,371.32,480.65,371.45,479.66z"/>
<path class="st5" d="M377.12,503.46c-8.49,12.74-22.65,13.68-35.39,8.02c-12.74-5.66-14.98-25.59-12.21-33.08s5.6-1.36,4.66,5.24
	c-0.94,6.61,0.94,18.4,8.96,22.18c8.02,3.77,22.18,5.09,27.84-1.7C376.65,497.32,377.12,503.46,377.12,503.46z"/>
<path class="st7" d="M346.92,508.83c-14.56-4.8-15.47-30.23-11.38-29.4c4.08,0.83,3.34,15.04,14.29,19.68s19.81-1.17,22.33,0.93
	C377.2,504.23,361.48,513.63,346.92,508.83z"/>
<circle class="st8" cx="604.62" cy="440.08" r="28.31"/>
<path class="st9" d="M621.49,440.77c3.07-13.97-7.84-21.8-19.91-17.96c-1.06,0.34-1.22,2.09-0.14,2.24
	c6.84,0.96,15.75,11.11,17.61,16.66C619.61,443.34,621.26,441.83,621.49,440.77z"/>
<path class="st10" d="M619.71,432.32c0.6-4.71-3.66-8.56-8.18-8.31c-1.34,0.07-1.83,2.06-0.83,2.66c2.72,1.64,4.98,4.35,6.39,6.31
	C618.08,434.37,619.58,433.31,619.71,432.32z"/>
<path class="st11" d="M625.38,456.12c-8.49,12.74-22.65,13.68-35.39,8.02c-12.74-5.66-14.98-25.59-12.21-33.08
	c2.77-7.5,5.6-1.36,4.66,5.24c-0.94,6.61,0.94,18.4,8.96,22.18s22.18,5.09,27.84-1.7C624.91,449.99,625.38,456.12,625.38,456.12z"/>
<path class="st12" d="M595.18,461.5c-14.56-4.8-15.47-30.23-11.38-29.4c4.08,0.83,3.34,15.04,14.29,19.68
	c10.95,4.64,19.81-1.17,22.33,0.93C625.46,456.9,609.74,466.3,595.18,461.5z"/>
<circle class="st13" cx="587.22" cy="591.69" r="28.31"/>
<path class="st14" d="M604.09,592.39c3.07-13.97-7.84-21.8-19.91-17.97c-1.06,0.34-1.22,2.09-0.14,2.24
	c6.84,0.96,15.75,11.11,17.61,16.66C602.21,594.96,603.86,593.45,604.09,592.39z"/>
<path class="st15" d="M602.31,583.93c0.6-4.71-3.66-8.56-8.18-8.31c-1.34,0.07-1.83,2.06-0.83,2.66c2.72,1.64,4.98,4.35,6.39,6.31
	C600.68,585.98,602.18,584.93,602.31,583.93z"/>
<path class="st16" d="M607.98,607.74c-8.49,12.74-22.65,13.68-35.39,8.02c-12.74-5.66-14.98-25.59-12.21-33.08
	c2.77-7.5,5.6-1.36,4.66,5.24s0.94,18.4,8.96,22.18s22.18,5.09,27.84-1.7S607.98,607.74,607.98,607.74z"/>
<path class="st17" d="M577.78,613.11c-14.56-4.8-15.47-30.23-11.38-29.4c4.08,0.83,3.34,15.04,14.29,19.68s19.81-1.17,22.33,0.93
	C608.06,608.51,592.34,617.91,577.78,613.11z"/>
<circle class="st18" cx="438.49" cy="634.24" r="28.31"/>
<path class="st19" d="M455.36,634.94c3.07-13.97-7.84-21.8-19.91-17.96c-1.06,0.34-1.22,2.09-0.14,2.24
	c6.84,0.96,15.75,11.11,17.61,16.66C453.48,637.51,455.13,635.99,455.36,634.94z"/>
<path class="st20" d="M453.58,626.48c0.6-4.71-3.66-8.56-8.18-8.31c-1.34,0.07-1.83,2.06-0.83,2.66c2.72,1.64,4.98,4.35,6.39,6.31
	C451.95,628.53,453.45,627.47,453.58,626.48z"/>
<path class="st19" d="M459.25,650.28c-8.49,12.74-22.65,13.68-35.39,8.02c-12.74-5.66-14.98-25.59-12.21-33.08s5.6-1.36,4.66,5.24
	s0.94,18.4,8.96,22.18c8.02,3.77,22.18,5.09,27.84-1.7S459.25,650.28,459.25,650.28z"/>
<path class="st21" d="M429.05,655.66c-14.56-4.8-15.47-30.23-11.38-29.4c4.08,0.83,3.34,15.04,14.29,19.68
	c10.95,4.64,19.81-1.17,22.33,0.93C459.33,651.06,443.61,660.46,429.05,655.66z"/>
<circle class="st0" cx="511.37" cy="451.43" r="17.21"/>
<path class="st1" d="M521.63,451.85c1.87-8.49-4.77-13.25-12.1-10.92c-0.65,0.21-0.74,1.27-0.09,1.36
	c4.16,0.58,9.57,6.75,10.71,10.13C520.49,453.41,521.49,452.49,521.63,451.85z"/>
<path class="st2" d="M520.54,446.71c0.36-2.86-2.22-5.2-4.97-5.05c-0.81,0.04-1.11,1.25-0.51,1.62c1.65,0.99,3.03,2.64,3.88,3.84
	C519.55,447.95,520.47,447.31,520.54,446.71z"/>
<path class="st1" d="M523.99,461.18c-5.16,7.74-13.77,8.32-21.51,4.88c-7.74-3.44-9.11-15.55-7.42-20.11s3.41-0.83,2.83,3.19
	c-0.57,4.02,0.57,11.19,5.45,13.48s13.48,3.09,16.92-1.04C523.71,457.45,523.99,461.18,523.99,461.18z"/>
<path class="st3" d="M505.64,464.45c-8.85-2.92-9.4-18.38-6.92-17.87c2.48,0.51,2.03,9.14,8.69,11.96
	c6.66,2.82,12.04-0.71,13.57,0.56C524.04,461.65,514.49,467.36,505.64,464.45z"/>
<circle class="st4" cx="451.42" cy="470.13" r="17.21"/>
<path class="st5" d="M461.68,470.55c1.87-8.49-4.77-13.25-12.1-10.92c-0.65,0.21-0.74,1.27-0.09,1.36
	c4.16,0.58,9.57,6.75,10.71,10.13C460.54,472.12,461.54,471.2,461.68,470.55z"/>
<path class="st6" d="M460.59,465.42c0.36-2.86-2.22-5.2-4.97-5.05c-0.81,0.04-1.11,1.25-0.51,1.62c1.65,0.99,3.03,2.64,3.88,3.84
	C459.6,466.66,460.52,466.02,460.59,465.42z"/>
<path class="st5" d="M464.04,479.88c-5.16,7.74-13.77,8.32-21.51,4.88c-7.74-3.44-9.11-15.55-7.42-20.11
	c1.68-4.56,3.41-0.83,2.83,3.19c-0.57,4.02,0.57,11.19,5.45,13.48s13.48,3.09,16.92-1.04C463.76,476.16,464.04,479.88,464.04,479.88
	z"/>
<path class="st7" d="M445.69,483.15c-8.85-2.92-9.4-18.38-6.92-17.87s2.03,9.14,8.69,11.96s12.04-0.71,13.57,0.56
	C464.09,480.36,454.54,486.07,445.69,483.15z"/>
<circle class="st8" cx="550.71" cy="500" r="17.21"/>
<path class="st9" d="M560.96,500.42c1.87-8.49-4.77-13.25-12.1-10.92c-0.65,0.21-0.74,1.27-0.09,1.36
	c4.16,0.58,9.57,6.75,10.71,10.13C559.82,501.98,560.82,501.07,560.96,500.42z"/>
<path class="st10" d="M559.88,495.28c0.36-2.86-2.22-5.2-4.97-5.05c-0.81,0.04-1.11,1.25-0.51,1.62c1.65,0.99,3.03,2.64,3.88,3.84
	C558.89,496.53,559.8,495.89,559.88,495.28z"/>
<path class="st11" d="M563.33,509.75c-5.16,7.74-13.77,8.32-21.51,4.88c-7.74-3.44-9.11-15.55-7.42-20.11s3.41-0.83,2.83,3.19
	c-0.57,4.02,0.57,11.19,5.45,13.48s13.48,3.09,16.92-1.04C563.04,506.02,563.33,509.75,563.33,509.75z"/>
<path class="st12" d="M544.97,513.02c-8.85-2.92-9.4-18.38-6.92-17.87c2.48,0.51,2.03,9.14,8.69,11.96s12.04-0.71,13.57,0.56
	C563.38,510.22,553.82,515.94,544.97,513.02z"/>
<circle class="st13" cx="514.47" cy="547.05" r="17.21"/>
<path class="st14" d="M524.73,547.47c1.87-8.49-4.77-13.25-12.1-10.92c-0.65,0.21-0.74,1.27-0.09,1.36
	c4.16,0.58,9.57,6.75,10.71,10.13C523.59,549.03,524.59,548.12,524.73,547.47z"/>
<path class="st15" d="M523.64,542.33c0.36-2.86-2.22-5.2-4.97-5.05c-0.81,0.04-1.11,1.25-0.51,1.62c1.65,0.99,3.03,2.64,3.88,3.84
	C522.65,543.58,523.57,542.94,523.64,542.33z"/>
<path class="st16" d="M527.09,556.8c-5.16,7.74-13.77,8.32-21.51,4.88c-7.74-3.44-9.11-15.55-7.42-20.11
	c1.68-4.56,3.41-0.83,2.83,3.19c-0.57,4.02,0.57,11.19,5.45,13.48s13.48,3.09,16.92-1.04C526.81,553.07,527.09,556.8,527.09,556.8z"
	/>
<path class="st17" d="M508.74,560.07c-8.85-2.92-9.4-18.38-6.92-17.87s2.03,9.14,8.69,11.96c6.66,2.82,12.04-0.71,13.57,0.56
	C527.14,557.27,517.59,562.99,508.74,560.07z"/>
<circle class="st18" cx="453.55" cy="530.35" r="17.21"/>
<path class="st19" d="M463.81,530.77c1.87-8.49-4.77-13.25-12.1-10.92c-0.65,0.21-0.74,1.27-0.09,1.36
	c4.16,0.58,9.57,6.75,10.71,10.13C462.66,532.33,463.67,531.41,463.81,530.77z"/>
<path class="st20" d="M462.72,525.63c0.36-2.86-2.22-5.2-4.97-5.05c-0.81,0.04-1.11,1.25-0.51,1.62c1.65,0.99,3.03,2.64,3.88,3.84
	C461.73,526.87,462.65,526.23,462.72,525.63z"/>
<path class="st19" d="M466.17,540.1c-5.16,7.74-13.77,8.32-21.51,4.88c-7.74-3.44-9.11-15.55-7.42-20.11s3.41-0.83,2.83,3.19
	c-0.57,4.02,0.57,11.19,5.45,13.48s13.48,3.09,16.92-1.04S466.17,540.1,466.17,540.1z"/>
<path class="st21" d="M447.82,543.36c-8.85-2.92-9.4-18.38-6.92-17.87s2.03,9.14,8.69,11.96s12.04-0.71,13.57,0.56
	C466.22,540.57,456.66,546.28,447.82,543.36z"/>
<g>
	<path d="M211.74,409.04c0-52.32-42.56-94.88-94.88-94.88s-94.88,42.56-94.88,94.88c0,52.32,42.56,94.88,94.88,94.88
		S211.74,461.35,211.74,409.04z M116.86,485.92c-42.39,0-76.88-34.49-76.88-76.88s34.49-76.88,76.88-76.88s76.88,34.49,76.88,76.88
		S159.25,485.92,116.86,485.92z"/>
	<path d="M231.88,788.31c-52.32,0-94.88,42.56-94.88,94.88s42.56,94.88,94.88,94.88c52.32,0,94.88-42.56,94.88-94.88
		S284.19,788.31,231.88,788.31z M231.88,960.06c-42.39,0-76.88-34.49-76.88-76.88c0-42.39,34.49-76.88,76.88-76.88
		c42.39,0,76.88,34.49,76.88,76.88C308.75,925.58,274.27,960.06,231.88,960.06z"/>
	<path d="M496.97,212.92c52.32,0,94.88-42.56,94.88-94.88s-42.56-94.88-94.88-94.88s-94.88,42.56-94.88,94.88
		S444.66,212.92,496.97,212.92z M496.97,41.17c42.39,0,76.88,34.49,76.88,76.88s-34.49,76.88-76.88,76.88
		c-42.39,0-76.88-34.49-76.88-76.88S454.58,41.17,496.97,41.17z"/>
	<path d="M882.62,311.32c-52.32,0-94.88,42.56-94.88,94.88s42.56,94.88,94.88,94.88s94.88-42.56,94.88-94.88
		S934.94,311.32,882.62,311.32z M882.62,483.07c-42.39,0-76.88-34.49-76.88-76.88s34.49-76.88,76.88-76.88
		c42.39,0,76.88,34.49,76.88,76.88S925.01,483.07,882.62,483.07z"/>
	<path d="M762.91,788.84c-52.32,0-94.88,42.56-94.88,94.88s42.56,94.88,94.88,94.88s94.88-42.56,94.88-94.88
		S815.22,788.84,762.91,788.84z M762.91,960.6c-42.39,0-76.88-34.49-76.88-76.88c0-42.39,34.49-76.88,76.88-76.88
		c42.39,0,76.88,34.49,76.88,76.88C839.79,926.11,805.3,960.6,762.91,960.6z"/>
	<path d="M328.44,397.8c32.13,0,58.26-26.14,58.26-58.26s-26.14-58.26-58.26-58.26s-58.26,26.14-58.26,58.26
		S296.31,397.8,328.44,397.8z M282.29,339.54c0-25.44,20.7-46.14,46.14-46.14s46.14,20.7,46.14,46.14s-20.7,46.14-46.14,46.14
		S282.29,364.98,282.29,339.54z"/>
	<path d="M187.45,621.35c0,32.13,26.14,58.26,58.26,58.26s58.26-26.14,58.26-58.26c0-32.12-26.14-58.26-58.26-58.26
		S187.45,589.22,187.45,621.35z M199.57,621.35c0-25.44,20.7-46.14,46.14-46.14c25.44,0,46.14,20.7,46.14,46.14
		s-20.7,46.14-46.14,46.14C220.27,667.49,199.57,646.79,199.57,621.35z"/>
	<path d="M616.06,241.91c-32.12,0-58.26,26.14-58.26,58.26s26.14,58.26,58.26,58.26c32.13,0,58.26-26.14,58.26-58.26
		S648.18,241.91,616.06,241.91z M662.2,300.17c0,25.44-20.7,46.14-46.14,46.14s-46.14-20.7-46.14-46.14s20.7-46.14,46.14-46.14
		S662.2,274.73,662.2,300.17z"/>
	<path d="M732.48,625.97c32.13,0,58.26-26.14,58.26-58.26c0-32.12-26.14-58.26-58.26-58.26c-32.12,0-58.26,26.14-58.26,58.26
		C674.22,599.83,700.36,625.97,732.48,625.97z M686.34,567.7c0-25.44,20.7-46.14,46.14-46.14s46.14,20.7,46.14,46.14
		s-20.7,46.14-46.14,46.14S686.34,593.15,686.34,567.7z"/>
	<path d="M522.59,722.81c-32.12,0-58.26,26.14-58.26,58.26c0,32.12,26.14,58.26,58.26,58.26c32.13,0,58.26-26.14,58.26-58.26
		C580.85,748.95,554.71,722.81,522.59,722.81z M568.73,781.07c0,25.44-20.7,46.14-46.14,46.14c-25.44,0-46.14-20.7-46.14-46.14
		s20.7-46.14,46.14-46.14C548.03,734.93,568.73,755.63,568.73,781.07z"/>
	<path d="M497.79,383.46c0-17.8-14.48-32.28-32.28-32.28s-32.28,14.48-32.28,32.28s14.48,32.28,32.28,32.28
		S497.79,401.26,497.79,383.46z M465.51,407.8c-13.42,0-24.34-10.92-24.34-24.34s10.92-24.34,24.34-24.34s24.34,10.92,24.34,24.34
		S478.93,407.8,465.51,407.8z"/>
	<path d="M356.36,455.13c-17.8,0-32.28,14.48-32.28,32.28s14.48,32.28,32.28,32.28c17.8,0,32.28-14.48,32.28-32.28
		S374.16,455.13,356.36,455.13z M380.7,487.42c0,13.42-10.92,24.34-24.34,24.34s-24.34-10.92-24.34-24.34
		c0-13.42,10.92-24.34,24.34-24.34S380.7,474,380.7,487.42z"/>
	<path d="M604.62,407.8c-17.8,0-32.28,14.48-32.28,32.28s14.48,32.28,32.28,32.28s32.28-14.48,32.28-32.28
		S622.42,407.8,604.62,407.8z M628.96,440.08c0,13.42-10.92,24.34-24.34,24.34c-13.42,0-24.34-10.92-24.34-24.34
		s10.92-24.34,24.34-24.34C618.04,415.74,628.96,426.66,628.96,440.08z"/>
	<path d="M587.22,559.41c-17.8,0-32.28,14.48-32.28,32.28s14.48,32.28,32.28,32.28s32.28-14.48,32.28-32.28
		S605.02,559.41,587.22,559.41z M611.56,591.69c0,13.42-10.92,24.34-24.34,24.34c-13.42,0-24.34-10.92-24.34-24.34
		c0-13.42,10.92-24.34,24.34-24.34C600.64,567.36,611.56,578.27,611.56,591.69z"/>
	<path d="M438.49,601.96c-17.8,0-32.28,14.48-32.28,32.28s14.48,32.28,32.28,32.28c17.8,0,32.28-14.48,32.28-32.28
		S456.29,601.96,438.49,601.96z M462.83,634.24c0,13.42-10.92,24.34-24.34,24.34s-24.34-10.92-24.34-24.34s10.92-24.34,24.34-24.34
		S462.83,620.82,462.83,634.24z"/>
	<path d="M511.37,471.64c11.14,0,20.21-9.07,20.21-20.21s-9.07-20.21-20.21-20.21s-20.21,9.07-20.21,20.21
		S500.23,471.64,511.37,471.64z M497.17,451.43c0-7.83,6.37-14.21,14.21-14.21s14.21,6.37,14.21,14.21s-6.37,14.21-14.21,14.21
		S497.17,459.26,497.17,451.43z"/>
	<path d="M471.63,470.13c0-11.14-9.07-20.21-20.21-20.21c-11.15,0-20.21,9.07-20.21,20.21c0,11.15,9.07,20.21,20.21,20.21
		C462.57,490.35,471.63,481.28,471.63,470.13z M465.63,470.13c0,7.83-6.37,14.21-14.21,14.21s-14.21-6.37-14.21-14.21
		s6.37-14.21,14.21-14.21S465.63,462.3,465.63,470.13z"/>
	<path d="M550.71,520.21c11.14,0,20.21-9.07,20.21-20.21s-9.07-20.21-20.21-20.21s-20.21,9.07-20.21,20.21
		S539.56,520.21,550.71,520.21z M536.5,500c0-7.83,6.37-14.21,14.21-14.21s14.21,6.37,14.21,14.21s-6.37,14.21-14.21,14.21
		S536.5,507.83,536.5,500z"/>
	<path d="M514.47,567.26c11.14,0,20.21-9.07,20.21-20.21s-9.07-20.21-20.21-20.21s-20.21,9.07-20.21,20.21
		S503.33,567.26,514.47,567.26z M500.27,547.05c0-7.83,6.37-14.21,14.21-14.21s14.21,6.37,14.21,14.21s-6.37,14.21-14.21,14.21
		S500.27,554.88,500.27,547.05z"/>
	<path d="M453.55,550.56c11.14,0,20.21-9.07,20.21-20.21s-9.07-20.21-20.21-20.21s-20.21,9.07-20.21,20.21
		S442.41,550.56,453.55,550.56z M439.35,530.34c0-7.83,6.37-14.21,14.21-14.21s14.21,6.37,14.21,14.21s-6.37,14.21-14.21,14.21
		S439.35,538.18,439.35,530.34z"/>
</g>
</svg>
