<?xml version="1.0" encoding="UTF-8" standalone="no"?>
<svg
   id="Capa_1"
   enable-background="new 0 0 374.706 374.706"
   height="512"
   viewBox="0 0 374.706 374.706"
   width="512"
   version="1.1"
   sodipodi:docname="empty-selection.svg"
   inkscape:version="1.3.2 (091e20e, 2023-11-25, custom)"
   xmlns:inkscape="http://www.inkscape.org/namespaces/inkscape"
   xmlns:sodipodi="http://sodipodi.sourceforge.net/DTD/sodipodi-0.dtd"
   xmlns="http://www.w3.org/2000/svg"
   xmlns:svg="http://www.w3.org/2000/svg">
  <defs
     id="defs6">
    <inkscape:path-effect
       effect="fillet_chamfer"
       id="path-effect14"
       is_visible="true"
       lpeversion="1"
       nodesatellites_param="F,0,0,1,0,5,0,1 @ F,0,0,1,0,5,0,1 @ F,0,0,1,0,5,0,1 @ F,0,0,1,0,5,0,1"
       radius="5"
       unit="px"
       method="auto"
       mode="F"
       chamfer_steps="1"
       flexible="false"
       use_knot_distance="true"
       apply_no_radius="true"
       apply_with_radius="true"
       only_selected="false"
       hide_knots="false" />
    <inkscape:path-effect
       effect="fillet_chamfer"
       id="path-effect13"
       is_visible="true"
       lpeversion="1"
       nodesatellites_param="F,0,0,1,0,5,0,1 @ F,0,0,1,0,5,0,1 @ F,0,0,1,0,5,0,1 @ F,0,0,1,0,5,0,1"
       radius="5"
       unit="px"
       method="auto"
       mode="F"
       chamfer_steps="1"
       flexible="false"
       use_knot_distance="true"
       apply_no_radius="true"
       apply_with_radius="true"
       only_selected="false"
       hide_knots="false" />
    <inkscape:path-effect
       effect="fillet_chamfer"
       id="path-effect12"
       is_visible="true"
       lpeversion="1"
       nodesatellites_param="F,0,0,1,0,5,0,1 @ F,0,0,1,0,5,0,1 @ F,0,0,1,0,5,0,1 @ F,0,0,1,0,5,0,1"
       radius="5"
       unit="px"
       method="auto"
       mode="F"
       chamfer_steps="1"
       flexible="false"
       use_knot_distance="true"
       apply_no_radius="true"
       apply_with_radius="true"
       only_selected="false"
       hide_knots="false" />
    <inkscape:path-effect
       effect="fillet_chamfer"
       id="path-effect11"
       is_visible="true"
       lpeversion="1"
       nodesatellites_param="F,0,0,1,0,5,0,1 @ F,0,0,1,0,5,0,1 @ F,0,0,1,0,5,0,1 @ F,0,0,1,0,5,0,1"
       radius="5"
       unit="px"
       method="auto"
       mode="F"
       chamfer_steps="1"
       flexible="false"
       use_knot_distance="true"
       apply_no_radius="true"
       apply_with_radius="true"
       only_selected="false"
       hide_knots="false" />
    <inkscape:path-effect
       effect="fillet_chamfer"
       id="path-effect10"
       is_visible="true"
       lpeversion="1"
       nodesatellites_param="F,0,0,1,0,4,0,1 @ F,0,0,1,0,4,0,1 @ F,0,0,1,0,4,0,1 @ F,0,0,1,0,4,0,1 @ F,0,0,1,0,4,0,1 @ F,0,0,1,0,4,0,1"
       radius="5"
       unit="px"
       method="auto"
       mode="F"
       chamfer_steps="1"
       flexible="false"
       use_knot_distance="true"
       apply_no_radius="true"
       apply_with_radius="true"
       only_selected="false"
       hide_knots="false" />
    <inkscape:path-effect
       effect="fillet_chamfer"
       id="path-effect9"
       is_visible="true"
       lpeversion="1"
       nodesatellites_param="F,0,0,1,0,5,0,1 @ F,0,0,1,0,5,0,1 @ F,0,0,1,0,5,0,1 @ F,0,0,1,0,5,0,1"
       radius="5"
       unit="px"
       method="auto"
       mode="F"
       chamfer_steps="1"
       flexible="false"
       use_knot_distance="true"
       apply_no_radius="true"
       apply_with_radius="true"
       only_selected="false"
       hide_knots="false" />
    <inkscape:path-effect
       effect="fillet_chamfer"
       id="path-effect8"
       is_visible="true"
       lpeversion="1"
       nodesatellites_param="F,0,0,1,0,5,0,1 @ F,0,0,1,0,5,0,1 @ F,0,0,1,0,5,0,1 @ F,0,0,1,0,5,0,1"
       radius="5"
       unit="px"
       method="auto"
       mode="F"
       chamfer_steps="1"
       flexible="false"
       use_knot_distance="true"
       apply_no_radius="true"
       apply_with_radius="true"
       only_selected="false"
       hide_knots="false" />
    <inkscape:path-effect
       effect="fillet_chamfer"
       id="path-effect7"
       is_visible="true"
       lpeversion="1"
       nodesatellites_param="F,0,0,1,0,5,0,1 @ F,0,0,1,0,5,0,1 @ F,0,0,1,0,5,0,1 @ F,0,0,1,0,5,0,1"
       radius="5"
       unit="px"
       method="auto"
       mode="F"
       chamfer_steps="1"
       flexible="false"
       use_knot_distance="true"
       apply_no_radius="true"
       apply_with_radius="true"
       only_selected="false"
       hide_knots="false" />
    <inkscape:path-effect
       effect="fillet_chamfer"
       id="path-effect6"
       is_visible="true"
       lpeversion="1"
       nodesatellites_param="F,0,0,1,0,5,0,1 @ F,0,0,1,0,5,0,1 @ F,0,0,1,0,5,0,1 @ F,0,0,1,0,5,0,1"
       radius="5"
       unit="px"
       method="auto"
       mode="F"
       chamfer_steps="1"
       flexible="false"
       use_knot_distance="true"
       apply_no_radius="true"
       apply_with_radius="true"
       only_selected="false"
       hide_knots="false" />
    <inkscape:path-effect
       effect="fillet_chamfer"
       id="path-effect10-7"
       is_visible="true"
       lpeversion="1"
       nodesatellites_param="F,0,0,1,0,4,0,1 @ F,0,0,1,0,4,0,1 @ F,0,0,1,0,4,0,1 @ F,0,0,1,0,4,0,1 @ F,0,0,1,0,4,0,1 @ F,0,0,1,0,4,0,1"
       radius="5"
       unit="px"
       method="auto"
       mode="F"
       chamfer_steps="1"
       flexible="false"
       use_knot_distance="true"
       apply_no_radius="true"
       apply_with_radius="true"
       only_selected="false"
       hide_knots="false" />
    <inkscape:path-effect
       effect="fillet_chamfer"
       id="path-effect10-9"
       is_visible="true"
       lpeversion="1"
       nodesatellites_param="F,0,0,1,0,4,0,1 @ F,0,0,1,0,4,0,1 @ F,0,0,1,0,4,0,1 @ F,0,0,1,0,4,0,1 @ F,0,0,1,0,4,0,1 @ F,0,0,1,0,4,0,1"
       radius="5"
       unit="px"
       method="auto"
       mode="F"
       chamfer_steps="1"
       flexible="false"
       use_knot_distance="true"
       apply_no_radius="true"
       apply_with_radius="true"
       only_selected="false"
       hide_knots="false" />
    <inkscape:path-effect
       effect="fillet_chamfer"
       id="path-effect6-0"
       is_visible="true"
       lpeversion="1"
       nodesatellites_param="F,0,0,1,0,5,0,1 @ F,0,0,1,0,5,0,1 @ F,0,0,1,0,5,0,1"
       radius="5"
       unit="px"
       method="auto"
       mode="F"
       chamfer_steps="1"
       flexible="false"
       use_knot_distance="true"
       apply_no_radius="true"
       apply_with_radius="true"
       only_selected="false"
       hide_knots="false" />
    <inkscape:path-effect
       effect="fillet_chamfer"
       id="path-effect6-9"
       is_visible="true"
       lpeversion="1"
       nodesatellites_param="F,0,0,1,0,5,0,1 @ F,0,0,1,0,5,0,1 @ F,0,0,1,0,17.947517,0,1 @ F,0,0,1,0,5,0,1"
       radius="5"
       unit="px"
       method="auto"
       mode="F"
       chamfer_steps="1"
       flexible="false"
       use_knot_distance="true"
       apply_no_radius="true"
       apply_with_radius="true"
       only_selected="false"
       hide_knots="false" />
    <inkscape:path-effect
       effect="fillet_chamfer"
       id="path-effect6-9-7"
       is_visible="true"
       lpeversion="1"
       nodesatellites_param="F,0,0,1,0,5,0,1 @ F,0,0,1,0,5,0,1 @ F,0,0,1,0,17.947517,0,1 @ F,0,0,1,0,5,0,1"
       radius="5"
       unit="px"
       method="auto"
       mode="F"
       chamfer_steps="1"
       flexible="false"
       use_knot_distance="true"
       apply_no_radius="true"
       apply_with_radius="true"
       only_selected="false"
       hide_knots="false" />
    <inkscape:path-effect
       effect="fillet_chamfer"
       id="path-effect6-9-9"
       is_visible="true"
       lpeversion="1"
       nodesatellites_param="F,0,0,1,0,5,0,1 @ F,0,0,1,0,5,0,1 @ F,0,0,1,0,17.947517,0,1 @ F,0,0,1,0,5,0,1"
       radius="5"
       unit="px"
       method="auto"
       mode="F"
       chamfer_steps="1"
       flexible="false"
       use_knot_distance="true"
       apply_no_radius="true"
       apply_with_radius="true"
       only_selected="false"
       hide_knots="false" />
    <inkscape:path-effect
       effect="fillet_chamfer"
       id="path-effect6-9-1"
       is_visible="true"
       lpeversion="1"
       nodesatellites_param="F,0,0,1,0,5,0,1 @ F,0,0,1,0,5,0,1 @ F,0,0,1,0,17.947517,0,1 @ F,0,0,1,0,5,0,1"
       radius="5"
       unit="px"
       method="auto"
       mode="F"
       chamfer_steps="1"
       flexible="false"
       use_knot_distance="true"
       apply_no_radius="true"
       apply_with_radius="true"
       only_selected="false"
       hide_knots="false" />
  </defs>
  <sodipodi:namedview
     id="namedview6"
     pagecolor="#ffffff"
     bordercolor="#000000"
     borderopacity="0.25"
     inkscape:showpageshadow="2"
     inkscape:pageopacity="0.0"
     inkscape:pagecheckerboard="0"
     inkscape:deskcolor="#d1d1d1"
     inkscape:zoom="0.28070206"
     inkscape:cx="-1401.8422"
     inkscape:cy="514.78069"
     inkscape:window-width="1920"
     inkscape:window-height="1009"
     inkscape:window-x="1912"
     inkscape:window-y="-7"
     inkscape:window-maximized="1"
     inkscape:current-layer="Capa_1" />
  <path
     id="path-1_35_"
     d="m 228.118,321.177 h 43.529 a 5,5 45 0 1 5,5 v 43.529 a 5,5 135 0 1 -5,5 h -43.529 a 5,5 45 0 1 -5,-5 v -43.529 a 5,5 135 0 1 5,-5 z"
     inkscape:path-effect="#path-effect6"
     inkscape:original-d="m 223.118,321.177 h 53.529 v 53.529 h -53.529 z" />
  <path
     id="path-1_35_-7"
     d="m 228.118,321.177 h 43.529 a 5,5 45 0 1 5,5 v 30.58148 A 17.947517,17.947517 135 0 1 258.69948,374.706 H 228.118 a 5,5 45 0 1 -5,-5 v -43.529 a 5,5 135 0 1 5,-5 z"
     inkscape:path-effect="#path-effect6-9"
     inkscape:original-d="m 223.118,321.177 h 53.529 v 53.529 h -53.529 z"
     transform="translate(98.059)" />
  <path
     id="path-1_35_-7-1"
     d="m 228.118,321.177 h 43.529 a 5,5 45 0 1 5,5 v 30.58148 A 17.947517,17.947517 135 0 1 258.69948,374.706 H 228.118 a 5,5 45 0 1 -5,-5 v -43.529 a 5,5 135 0 1 5,-5 z"
     inkscape:path-effect="#path-effect6-9-1"
     inkscape:original-d="m 223.118,321.177 h 53.529 v 53.529 h -53.529 z"
     transform="rotate(-90,138.3235,138.3235)" />
  <path
     id="path-1_35_-7-5"
     d="m 228.118,321.177 h 43.529 a 5,5 45 0 1 5,5 v 30.58148 A 17.947517,17.947517 135 0 1 258.69948,374.706 H 228.118 a 5,5 45 0 1 -5,-5 v -43.529 a 5,5 135 0 1 5,-5 z"
     inkscape:path-effect="#path-effect6-9-9"
     inkscape:original-d="m 223.118,321.177 h 53.529 v 53.529 h -53.529 z"
     transform="rotate(180,138.3235,187.353)" />
  <path
     id="path-1_35_-7-8"
     d="m 228.118,321.177 h 43.529 a 5,5 45 0 1 5,5 v 30.58148 A 17.947517,17.947517 135 0 1 258.69948,374.706 H 228.118 a 5,5 45 0 1 -5,-5 v -43.529 a 5,5 135 0 1 5,-5 z"
     inkscape:path-effect="#path-effect6-9-7"
     inkscape:original-d="m 223.118,321.177 h 53.529 v 53.529 h -53.529 z"
     transform="rotate(90,138.3235,236.3825)" />
  <path
     id="path-1_34_"
     d="m 117.059,321.177 h 43.529 a 5,5 45 0 1 5,5 v 43.529 a 5,5 135 0 1 -5,5 h -43.529 a 5,5 45 0 1 -5,-5 v -43.529 a 5,5 135 0 1 5,-5 z"
     inkscape:path-effect="#path-effect7"
     inkscape:original-d="m 112.059,321.177 h 53.529 v 53.529 h -53.529 z" />
  <path
     id="path-1_33_"
     d="m 5,107.059 h 43.529 a 5,5 45 0 1 5,5 v 43.529 a 5,5 135 0 1 -5,5 l -43.529,0 a 5,5 45 0 1 -5,-5 v -43.529 a 5,5 135 0 1 5,-5 z"
     transform="translate(0,5)"
     inkscape:path-effect="#path-effect11"
     inkscape:original-d="m 0,107.059 h 53.529 v 53.529 H 0 Z" />
  <path
     id="path-1_32_"
     d="m 5,214.118 h 43.529 a 5,5 45 0 1 5,5 v 43.529 a 5,5 135 0 1 -5,5 H 5 a 5,5 45 0 1 -5,-5 v -43.529 a 5,5 135 0 1 5,-5 z"
     transform="translate(0,9)"
     inkscape:path-effect="#path-effect12"
     inkscape:original-d="m 0,214.118 h 53.529 v 53.529 H 0 Z" />
  <path
     id="path-1_31_"
     d="m 112.059,0 h 43.529 a 5,5 45 0 1 5,5 l 0,43.529 a 5,5 135 0 1 -5,5 h -43.529 a 5,5 45 0 1 -5,-5 V 5 a 5,5 135 0 1 5,-5 z"
     transform="translate(5)"
     inkscape:path-effect="#path-effect14"
     inkscape:original-d="m 107.059,0 h 53.529 v 53.529 h -53.529 z" />
  <path
     id="path-1_30_"
     d="m 228.118,0 h 43.529 a 5,5 45 0 1 5,5 v 43.529 a 5,5 135 0 1 -5,5 h -43.529 a 5,5 45 0 1 -5,-5 V 5 a 5,5 135 0 1 5,-5 z"
     inkscape:path-effect="#path-effect13"
     inkscape:original-d="m 223.118,0 h 53.529 v 53.529 h -53.529 z" />
  <path
     id="path-1_29_"
     d="m 326.177,223.118 h 43.529 a 5,5 45 0 1 5,5 v 43.529 a 5,5 135 0 1 -5,5 h -43.529 a 5,5 45 0 1 -5,-5 v -43.529 a 5,5 135 0 1 5,-5 z"
     inkscape:path-effect="#path-effect8"
     inkscape:original-d="m 321.177,223.118 h 53.529 v 53.529 h -53.529 z" />
  <path
     id="path-1_28_"
     d="m 326.177,112.059 h 43.529 a 5,5 45 0 1 5,5 v 43.529 a 5,5 135 0 1 -5,5 h -43.529 a 5,5 45 0 1 -5,-5 v -43.529 a 5,5 135 0 1 5,-5 z"
     inkscape:path-effect="#path-effect9"
     inkscape:original-d="m 321.177,112.059 h 53.529 v 53.529 h -53.529 z" />
</svg>
