<?xml version="1.0" encoding="UTF-8"?>
<svg width="1200pt" height="1200pt" version="1.1" viewBox="0 0 1200 1200" xmlns="http://www.w3.org/2000/svg">
 <path d="m720 276v-134.4l182.4 182.4h-134.4c-26.398 0-48-21.602-48-48zm216 96v672c0 26.398-21.602 48-48 48h-576c-26.398 0-48-21.602-48-48v-888c0-26.398 21.602-48 48-48h360v168c0 52.801 43.199 96 96 96zm-120 480c0-13.199-10.801-24-24-24h-384c-13.199 0-24 10.801-24 24s10.801 24 24 24h384c13.199 0 24-10.801 24-24zm0-120c0-13.199-10.801-24-24-24h-384c-13.199 0-24 10.801-24 24s10.801 24 24 24h384c13.199 0 24-10.801 24-24zm0-120c0-13.199-10.801-24-24-24h-384c-13.199 0-24 10.801-24 24s10.801 24 24 24h384c13.199 0 24-10.801 24-24z"/>
</svg>
