<?xml version="1.0" encoding="UTF-8" standalone="no"?>
<svg
   width="512pt"
   height="512pt"
   version="1.1"
   viewBox="0 0 512 512"
   id="svg1"
   sodipodi:docname="helmet.svg"
   inkscape:version="1.3.2 (091e20e, 2023-11-25, custom)"
   xmlns:inkscape="http://www.inkscape.org/namespaces/inkscape"
   xmlns:sodipodi="http://sodipodi.sourceforge.net/DTD/sodipodi-0.dtd"
   xmlns="http://www.w3.org/2000/svg"
   xmlns:svg="http://www.w3.org/2000/svg">
  <defs
     id="defs1" />
  <sodipodi:namedview
     id="namedview1"
     pagecolor="#ffffff"
     bordercolor="#000000"
     borderopacity="0.25"
     inkscape:showpageshadow="2"
     inkscape:pageopacity="0.0"
     inkscape:pagecheckerboard="0"
     inkscape:deskcolor="#d1d1d1"
     inkscape:document-units="pt"
     inkscape:zoom="1.190918"
     inkscape:cx="341.33333"
     inkscape:cy="139.80812"
     inkscape:window-width="1872"
     inkscape:window-height="1009"
     inkscape:window-x="1912"
     inkscape:window-y="-7"
     inkscape:window-maximized="1"
     inkscape:current-layer="svg1" />
  <path
     d="M 254.52318,0 V 0.58923 C 48.230461,2.47626 82.578847,175.77 82.578847,175.77 V 382.4064 C 104.05972,441.94182 183.48738,489.50523 227.55276,512 l -0.007,-261.93293 c -32.50438,-2.67756 -75.06323,-20.03353 -75.06323,-20.03353 l -10.84488,-54.27691 c 45.549,23.33873 105.97229,25.69494 116.23537,25.90307 10.24819,-0.21631 70.53553,-2.58076 115.96614,-25.90307 l -10.80001,54.27691 c 0,0 -42.44619,17.34126 -74.86226,20.03353 v 259.75621 c 44.52747,-23.21844 120.35207,-69.8577 141.2372,-127.87132 l 0.007,-206.65549 c -0.0149,0 34.72072,-175.29343 -174.89818,-175.29343 z"
     id="path1"
     style="stroke-width:1.90941" />
</svg>
