<?xml version="1.0" encoding="UTF-8" standalone="no"?>
<svg
   id="Layer_1"
   enable-background="new 0 0 510 510"
   height="512"
   viewBox="0 0 510 510"
   width="512"
   version="1.1"
   sodipodi:docname="import-dialog.svg"
   inkscape:version="1.3.2 (091e20e, 2023-11-25, custom)"
   xmlns:inkscape="http://www.inkscape.org/namespaces/inkscape"
   xmlns:sodipodi="http://sodipodi.sourceforge.net/DTD/sodipodi-0.dtd"
   xmlns="http://www.w3.org/2000/svg"
   xmlns:svg="http://www.w3.org/2000/svg">
  <defs
     id="defs1">
    <inkscape:path-effect
       effect="fillet_chamfer"
       id="path-effect4"
       is_visible="true"
       lpeversion="1"
       nodesatellites_param="F,0,0,1,0,5,0,1 @ F,0,0,1,0,5,0,1 @ F,0,0,1,0,5,0,1 @ F,0,0,1,0,5,0,1 | F,0,0,1,0,5,0,1 @ F,0,0,1,0,5,0,1 @ F,0,0,1,0,5,0,1 @ F,0,0,1,0,5,0,1 @ F,0,0,1,0,5,0,1 @ F,0,0,1,0,5,0,1 @ F,0,0,1,0,5,0,1 @ F,0,0,1,0,5,0,1 @ F,0,0,1,0,5,0,1 @ F,0,0,1,0,5,0,1 @ F,0,0,1,0,5,0,1 @ F,0,0,1,0,5,0,1 @ F,0,0,1,0,5,0,1 @ F,0,0,1,0,5,0,1 @ F,0,0,1,0,5,0,1 @ F,0,0,1,0,5,0,1"
       radius="5"
       unit="px"
       method="auto"
       mode="F"
       chamfer_steps="1"
       flexible="false"
       use_knot_distance="true"
       apply_no_radius="true"
       apply_with_radius="true"
       only_selected="false"
       hide_knots="false" />
    <inkscape:path-effect
       effect="fillet_chamfer"
       id="path-effect3"
       is_visible="true"
       lpeversion="1"
       nodesatellites_param="F,0,0,1,0,5,0,1 @ F,0,0,1,0,5,0,1 @ F,0,0,1,0,5,0,1 @ F,0,0,1,0,5,0,1"
       radius="5"
       unit="px"
       method="auto"
       mode="F"
       chamfer_steps="1"
       flexible="false"
       use_knot_distance="true"
       apply_no_radius="true"
       apply_with_radius="true"
       only_selected="false"
       hide_knots="false" />
    <inkscape:path-effect
       effect="fillet_chamfer"
       id="path-effect2"
       is_visible="true"
       lpeversion="1"
       nodesatellites_param="F,0,0,1,0,5,0,1 @ F,0,0,1,0,5,0,1 @ F,0,0,1,0,5,0,1 @ F,0,0,1,0,5,0,1 @ F,0,0,1,0,5,0,1 @ F,0,0,1,0,5,0,1 @ F,0,0,1,0,5,0,1 @ F,0,0,1,0,5,0,1"
       radius="5"
       unit="px"
       method="auto"
       mode="F"
       chamfer_steps="1"
       flexible="false"
       use_knot_distance="true"
       apply_no_radius="true"
       apply_with_radius="true"
       only_selected="false"
       hide_knots="false" />
    <inkscape:path-effect
       effect="fillet_chamfer"
       id="path-effect1"
       is_visible="true"
       lpeversion="1"
       nodesatellites_param="F,0,0,1,0,5,0,1 @ F,0,0,1,0,5,0,1 @ F,0,0,1,0,5,0,1 @ F,0,0,1,0,5,0,1 @ F,0,0,1,0,5,0,1 @ F,0,0,1,0,5,0,1 @ F,0,0,1,0,5,0,1 @ F,0,0,1,0,5,0,1"
       radius="5"
       unit="px"
       method="auto"
       mode="F"
       chamfer_steps="1"
       flexible="false"
       use_knot_distance="true"
       apply_no_radius="true"
       apply_with_radius="true"
       only_selected="false"
       hide_knots="false" />
  </defs>
  <sodipodi:namedview
     id="namedview1"
     pagecolor="#ffffff"
     bordercolor="#000000"
     borderopacity="0.25"
     inkscape:showpageshadow="2"
     inkscape:pageopacity="0.0"
     inkscape:pagecheckerboard="0"
     inkscape:deskcolor="#d1d1d1"
     inkscape:zoom="1.5878906"
     inkscape:cx="256.62977"
     inkscape:cy="254.11071"
     inkscape:window-width="1872"
     inkscape:window-height="1009"
     inkscape:window-x="1912"
     inkscape:window-y="-7"
     inkscape:window-maximized="1"
     inkscape:current-layer="Layer_1" />
  <g
     id="XMLID_3053_"
     transform="matrix(0.83984375,0,0,0.83984375,40.839844,40.839844)"
     style="fill:#ffffff">
    <path
       id="XMLID_3057_"
       d="m 0,125 v 260 a 5,5 45 0 0 5,5 l 320,0 a 5,5 135 0 0 5,-5 V 125 a 5,5 45 0 0 -5,-5 H 5 a 5,5 135 0 0 -5,5 z m 205,115 h -20 a 5,5 45 0 1 -5,-5 v -20 a 5,5 45 0 0 -5,-5 h -20 a 5,5 135 0 0 -5,5 v 80 a 5,5 45 0 0 5,5 h 20 a 5,5 45 0 1 5,5 v 20 a 5,5 135 0 1 -5,5 H 95 a 5,5 45 0 1 -5,-5 v -20 a 5,5 135 0 1 5,-5 h 20 a 5,5 135 0 0 5,-5 v -80 a 5,5 45 0 0 -5,-5 H 95 a 5,5 135 0 0 -5,5 v 20 a 5,5 135 0 1 -5,5 H 65 a 5,5 45 0 1 -5,-5 v -50 a 5,5 135 0 1 5,-5 h 140 a 5,5 45 0 1 5,5 v 50 a 5,5 135 0 1 -5,5 z"
       inkscape:path-effect="#path-effect4"
       inkscape:original-d="M 0,120 V 390 H 330 V 120 Z m 210,120 h -30 v -30 h -30 v 90 h 30 v 30 H 90 v -30 h 30 V 210 H 90 v 30 H 60 v -60 h 150 z"
       style="fill:#ffffff" />
    <path
       id="XMLID_3056_"
       d="m 365,120 h 140 a 5,5 45 0 1 5,5 v 260 a 5,5 135 0 1 -5,5 H 365 a 5,5 45 0 1 -5,-5 l 0,-260 a 5,5 135 0 1 5,-5 z"
       inkscape:path-effect="#path-effect3"
       inkscape:original-d="M 360,120 H 510 V 390 H 360 Z"
       style="fill:#ffffff" />
    <path
       id="XMLID_3055_"
       d="m 365,75 35,0 a 5,5 135 0 0 5,-5 V 50 a 5,5 45 0 0 -5,-5 H 290 a 5,5 135 0 0 -5,5 v 20 a 5,5 45 0 0 5,5 l 35,0 a 5,5 45 0 1 5,5 v 35 a 5,5 45 0 0 5,5 h 20 a 5,5 135 0 0 5,-5 V 80 a 5,5 135 0 1 5,-5 z"
       inkscape:path-effect="#path-effect2"
       inkscape:original-d="m 360,75 h 45 V 45 H 285 v 30 h 45 v 45 h 30 z"
       style="fill:#ffffff" />
    <path
       id="XMLID_3054_"
       d="m 330,395 v 35 a 5,5 135 0 1 -5,5 l -35,0 a 5,5 135 0 0 -5,5 v 20 a 5,5 45 0 0 5,5 h 110 a 5,5 135 0 0 5,-5 v -20 a 5,5 45 0 0 -5,-5 l -35,0 a 5,5 45 0 1 -5,-5 v -35 a 5,5 45 0 0 -5,-5 h -20 a 5,5 135 0 0 -5,5 z"
       inkscape:path-effect="#path-effect1"
       inkscape:original-d="m 330,390 v 45 h -45 v 30 h 120 v -30 h -45 v -45 z"
       style="fill:#ffffff" />
  </g>
</svg>
