<svg id="Layer_1" enable-background="new 0 0 100 100" viewBox="0 0 100 100" xmlns="http://www.w3.org/2000/svg"><g fill="#565d47"><path d="m63.6213264 77.0430756h-3.3928566v-33.828785c.0000038-5.5882378-4.5903358-10.1785736-10.1785736-10.1785736h-10.1785736c-5.5882339 0-10.1785717 4.4905472-10.1785717 10.1785736 0 5.5882339 4.5903339 10.1785736 10.1785717 10.1785736v23.7499962h-3.3928566c-5.5882378 0-10.1785755 4.590332-10.1785755 10.1785736 0 5.588234 4.5903378 10.178566 10.1785755 10.178566h27.0430717c5.5882339 0 10.1785736-4.590332 10.1785736-10.178566.0000001-5.5882416-4.4905471-10.2783584-10.0787849-10.2783584z"/><path d="m48.3534698 26.2500019c6.586132 0 11.875-5.288866 11.875-11.875001 0-6.4863452-5.2888679-11.8750009-11.8750038-11.8750009-6.4863472 0-11.8750038 5.2888665-11.8750038 11.875001.0000076 6.586133 5.3886605 11.8750009 11.8750076 11.8750009z"/></g></svg>