<?xml version="1.0" encoding="UTF-8" standalone="no"?>
<svg
   id="Layer_1"
   enable-background="new 0 0 512 512"
   height="512"
   viewBox="0 0 512 512"
   width="512"
   version="1.1"
   sodipodi:docname="lines.svg"
   inkscape:version="1.3.2 (091e20e, 2023-11-25, custom)"
   xmlns:inkscape="http://www.inkscape.org/namespaces/inkscape"
   xmlns:sodipodi="http://sodipodi.sourceforge.net/DTD/sodipodi-0.dtd"
   xmlns="http://www.w3.org/2000/svg"
   xmlns:svg="http://www.w3.org/2000/svg">
  <defs
     id="defs3" />
  <sodipodi:namedview
     id="namedview3"
     pagecolor="#ffffff"
     bordercolor="#000000"
     borderopacity="0.25"
     inkscape:showpageshadow="2"
     inkscape:pageopacity="0.0"
     inkscape:pagecheckerboard="0"
     inkscape:deskcolor="#d1d1d1"
     inkscape:zoom="1.5878906"
     inkscape:cx="255.68512"
     inkscape:cy="256"
     inkscape:window-width="1872"
     inkscape:window-height="1009"
     inkscape:window-x="1912"
     inkscape:window-y="-7"
     inkscape:window-maximized="1"
     inkscape:current-layer="Layer_1" />
  <g
     id="g3"
     transform="matrix(0.78445211,0,0,0.78445211,55.141037,55.141037)">
    <g
       id="Layer_2_00000004508179630132201490000000499840182813051814_">
      <g
         id="menu_bar">
        <path
           d="m 53.3,16.3 h 405.5 c 29.4,0 53.3,23.8 53.3,53.3 0,29.4 -23.8,53.3 -53.3,53.3 H 53.3 C 23.8,122.8 0,99 0,69.6 0,40.2 23.8,16.3 53.3,16.3 Z"
           id="path1" />
        <path
           d="m 53.3,202.7 h 405.5 c 29.4,0 53.3,23.8 53.3,53.3 0,29.4 -23.8,53.3 -53.3,53.3 H 53.3 C 23.8,309.3 0,285.4 0,256 0,226.6 23.8,202.7 53.3,202.7 Z"
           id="path2" />
        <path
           d="m 53.3,389.2 h 405.5 c 29.4,0 53.3,23.8 53.3,53.3 0,29.4 -23.8,53.3 -53.3,53.3 H 53.3 C 23.8,495.7 0,471.8 0,442.4 0,413 23.8,389.2 53.3,389.2 Z"
           id="path3" />
      </g>
    </g>
  </g>
</svg>
