<?xml version="1.0" encoding="UTF-8" standalone="no"?>
<svg
   id="Capa_1"
   enable-background="new 0 0 512 512"
   height="512"
   viewBox="0 0 512 512"
   width="512"
   version="1.1"
   sodipodi:docname="m.svg"
   inkscape:version="1.3.2 (091e20e, 2023-11-25, custom)"
   xmlns:inkscape="http://www.inkscape.org/namespaces/inkscape"
   xmlns:sodipodi="http://sodipodi.sourceforge.net/DTD/sodipodi-0.dtd"
   xmlns="http://www.w3.org/2000/svg"
   xmlns:svg="http://www.w3.org/2000/svg">
  <defs
     id="defs1" />
  <sodipodi:namedview
     id="namedview1"
     pagecolor="#ffffff"
     bordercolor="#000000"
     borderopacity="0.25"
     inkscape:showpageshadow="2"
     inkscape:pageopacity="0.0"
     inkscape:pagecheckerboard="0"
     inkscape:deskcolor="#d1d1d1"
     inkscape:zoom="1.5878906"
     inkscape:cx="256"
     inkscape:cy="256"
     inkscape:window-width="1872"
     inkscape:window-height="1009"
     inkscape:window-x="1912"
     inkscape:window-y="-7"
     inkscape:window-maximized="1"
     inkscape:current-layer="Capa_1" />
  <g
     id="g1">
    <path
       d="m429.87 2.194c-18.559-6.014-38.879.618-50.32 16.42l-123.55 170.652-123.55-170.652c-11.44-15.802-31.761-22.433-50.32-16.42s-31.13 23.3-31.13 42.809v421.997c0 24.853 20.147 45 45 45s45-20.147 45-45v-283.106l78.55 108.496c8.463 11.689 22.019 18.611 36.45 18.611 14.432 0 27.987-6.921 36.45-18.611l78.55-108.496v283.106c0 24.853 20.147 45 45 45s45-20.147 45-45v-421.997c0-19.509-12.571-36.796-31.13-42.809z"
       id="path1" />
  </g>
  <path
     d="M 315.26536,414.04762 H 274.45238 V 373.23465 C 274.45238,363.20762 266.03072,355 256,355 c -10.03071,0 -18.45238,8.20762 -18.45238,18.23465 v 40.81297 h -40.81297 c -10.02703,0 -18.23465,8.42167 -18.23465,18.45238 0,10.03072 8.20762,18.45238 18.23465,18.45238 h 40.81297 v 40.81298 C 237.54762,501.79238 245.96929,510 256,510 c 10.03072,0 18.45238,-8.20762 18.45238,-18.23464 v -40.81298 h 40.81298 c 10.02702,0 18.23464,-8.42166 18.23464,-18.45238 0,-10.03071 -8.20762,-18.45238 -18.23464,-18.45238 z"
     id="path1-5"
     style="stroke-width:3.69048" />
</svg>
