<svg id="Capa_1" enable-background="new 0 0 591.657 591.657" height="512" viewBox="0 0 591.657 591.657" width="512" xmlns="http://www.w3.org/2000/svg"><g><g id="Page-1_24_"><g id="_x30_25---Sceptre" clip-rule="evenodd" fill-rule="evenodd"><path id="Path_143_" d="m17.962 518.317 56.823 56.924-6.631 6.937c-5.767 5.968-13.682 9.38-21.98 9.476s-16.29-3.133-22.193-8.966l-13.568-13.568c-5.856-5.891-9.101-13.887-9.005-22.193s3.524-16.225 9.515-21.979z"/><path id="Path_142_" d="m55.095 482.714 55.293 55.292-21.423 22.444-56.313-56.313z"/><path id="Path_141_" d="m107.225 433.033 52.844 52.843-35.603 37.338-54.578-54.578z"/><path id="Path_140_" d="m151.908 390.39 50.804 50.804-28.565 29.992-52.13-52.232z"/><path id="Path_139_" d="m204.038 340.709 48.457 48.457-35.705 37.338-50.192-50.192z"/><path id="Path_138_" d="m544.259 241.244c-44.943 41.69-109.302 55.01-167.101 34.583-7.571-2.701-16.024-.658-21.525 5.203l-89.161 93.344-47.743-47.743 96.813-92.426c21.826-20.337 53.751-25.53 80.898-13.16.16.003.31.078.408.204 37.721 14.854 80.589 7.243 110.891-19.689 21.366-19.438 32.645-47.596 30.605-76.409-1.34-28.488-17.003-54.363-41.622-68.758-11.87-6.592-25.446-9.471-38.97-8.263-13.44 1.221-26.184 6.525-36.521 15.2-9.801 8.212-16.201 19.775-17.955 32.441-1.721 12.441 1.382 25.07 8.671 35.297 6.21 8.568 16.505 13.191 27.034 12.14 4.882-.771 9.426-2.972 13.058-6.325 1.986-1.824 3.037-4.451 2.856-7.141-1.407-11.166 6.43-21.386 17.579-22.923s21.459 6.182 23.125 17.312c2.128 15.532-3.073 31.172-14.078 42.336-9.39 9.554-21.506 15.968-34.685 18.363-15.557 2.991-31.67.503-45.601-7.039-1.326-.714-2.754-1.53-4.081-2.346-4.344-2.678-8.381-5.825-12.038-9.385-2.789-2.555-5.381-5.317-7.753-8.263-14.771-19.15-21.504-43.3-18.771-67.33 2.753-23.965 14.227-46.079 32.237-62.127 17.399-15.097 38.871-24.715 61.719-27.646 2.856-.204 5.713-.51 8.773-.612 20.141-.743 40.133 3.72 58.047 12.956 20.346 10.406 37.431 26.22 49.375 45.703 36.139 58.944 25.913 135.166-24.484 182.503z"/></g></g></g></svg>