<?xml version="1.0" encoding="UTF-8" standalone="no"?>
<svg
   id="Layer_5"
   viewBox="0 0 50 50"
   data-name="Layer 5"
   version="1.1"
   sodipodi:docname="Missing Card.svg"
   inkscape:version="1.3.2 (091e20e, 2023-11-25, custom)"
   xmlns:inkscape="http://www.inkscape.org/namespaces/inkscape"
   xmlns:sodipodi="http://sodipodi.sourceforge.net/DTD/sodipodi-0.dtd"
   xmlns="http://www.w3.org/2000/svg"
   xmlns:svg="http://www.w3.org/2000/svg">
  <defs
     id="defs1" />
  <sodipodi:namedview
     id="namedview1"
     pagecolor="#ffffff"
     bordercolor="#000000"
     borderopacity="0.25"
     inkscape:showpageshadow="2"
     inkscape:pageopacity="0.0"
     inkscape:pagecheckerboard="0"
     inkscape:deskcolor="#d1d1d1"
     inkscape:zoom="16.26"
     inkscape:cx="25"
     inkscape:cy="25"
     inkscape:window-width="1872"
     inkscape:window-height="1009"
     inkscape:window-x="-8"
     inkscape:window-y="-8"
     inkscape:window-maximized="1"
     inkscape:current-layer="Layer_5" />
  <path
     d="M 47.181028,9.8984661 41.971006,39.488493 c -0.169983,0.940002 -0.689941,1.77002 -1.47998,2.320007 -0.539978,0.380005 -1.169983,0.599976 -1.820007,0.640015 0.299987,-0.820007 0.380004,-1.720032 0.230041,-2.610046 L 33.681028,10.248503 C 33.441038,8.9084759 32.701048,7.738493 31.581053,6.9584637 30.721006,6.3584881 29.711058,6.0384808 28.671019,6.0384808 c -0.299988,0 -0.599976,0.030029 -0.889954,0.080017 L 17.231016,7.9784832 17.801023,4.7184734 C 17.961058,3.778471 18.491026,2.9485149 19.281065,2.3984661 20.061033,1.8484783 21.021055,1.6385174 21.961058,1.8085003 L 44.271055,5.738493 c 0.940003,0.1599731 1.769959,0.6900024 2.320007,1.4799804 0.549988,0.7800293 0.759949,1.7399903 0.589966,2.6799927 z M 37.420469,40.095182 c 0.166504,0.945801 -0.04492,1.899903 -0.595703,2.686524 -0.550781,0.787109 -1.375,1.312012 -2.321289,1.478515 l -22.305176,3.933106 c -0.210937,0.03711 -0.422363,0.05566 -0.632324,0.05566 -0.730957,0 -1.442871,-0.223145 -2.0541992,-0.651367 C 8.7251568,47.046843 8.1997661,46.223112 8.0327739,45.277311 L 2.8164653,15.691862 C 2.4722271,13.739225 3.7803325,11.871061 5.732481,11.526335 L 28.038633,7.5932293 c 0.946289,-0.1665039 1.899903,0.044922 2.686524,0.5957031 0.786621,0.5512696 1.311523,1.375 1.478515,2.3208006 z M 35.94293,40.355925 30.726133,10.770475 C 30.628965,10.219206 30.322813,9.7387371 29.864805,9.4179363 29.50836,9.1684246 29.093321,9.0380535 28.66754,9.0380535 c -0.122559,0 -0.245606,0.010742 -0.368164,0.032715 L 5.9932232,13.003874 C 4.8555279,13.204557 4.0933208,14.293425 4.2940044,15.43112 L 9.510313,45.016569 c 0.097168,0.55127 0.4033203,1.03125 0.861816,1.352539 0.45752,0.320313 1.011719,0.445313 1.56543,0.34668 l 22.305664,-3.933106 h 4.88e-4 c 0.55127,-0.09668 1.03125,-0.402832 1.35254,-0.861328 0.3208,-0.458496 0.443847,-1.01416 0.346679,-1.565429 z M 24.271543,25.813932 21.774473,25.5278 20.652403,23.279264 c -0.280762,-0.5625 -0.85791,-0.851562 -1.480957,-0.746093 -0.618653,0.109375 -1.064453,0.583008 -1.135742,1.207519 l -0.286133,2.498535 -2.245117,1.120118 c -0.5625,0.280761 -0.855469,0.861816 -0.746094,1.480468 0.108887,0.619141 0.583008,1.064942 1.207519,1.136231 l 2.494629,0.285156 1.121094,2.246582 c 0.241699,0.484375 0.706055,0.769043 1.225586,0.769043 0.0835,0 0.168945,-0.0078 0.254883,-0.02295 0.61914,-0.108887 1.064941,-0.583008 1.135742,-1.207031 l 0.285156,-2.493164 2.25,-1.123536 c 0.562012,-0.280273 0.854981,-0.861328 0.746094,-1.47998 -0.109375,-0.619141 -0.583008,-1.064942 -1.20752,-1.136231 z"
     id="path1"
     sodipodi:nodetypes="cccccccsccccccccccccscccccccccccscccccccccccccccccccccscccccc" />
</svg>
