<svg height="512" viewBox="0 0 128 128" width="512" xmlns="http://www.w3.org/2000/svg"><g id="Glyph"><g id="Glyph-2" data-name="Glyph"><path d="m120.5 4h-83.8a1.5 1.5 0 0 0 -1.246 2.336 20.942 20.942 0 0 1 0 23.328 1.5 1.5 0 0 0 1.246 2.336h83.8a7.508 7.508 0 0 0 7.5-7.5v-13a7.508 7.508 0 0 0 -7.5-7.5z"/><path d="m120.5 50h-83.8a1.5 1.5 0 0 0 -1.246 2.336 20.942 20.942 0 0 1 0 23.328 1.5 1.5 0 0 0 1.246 2.336h83.8a7.508 7.508 0 0 0 7.5-7.5v-13a7.508 7.508 0 0 0 -7.5-7.5z"/><path d="m120.5 96h-83.8a1.5 1.5 0 0 0 -1.246 2.336 20.942 20.942 0 0 1 0 23.328 1.5 1.5 0 0 0 1.246 2.336h83.8a7.508 7.508 0 0 0 7.5-7.5v-13a7.508 7.508 0 0 0 -7.5-7.5z"/><path d="m18 128a18 18 0 1 0 -18-18 18.021 18.021 0 0 0 18 18zm.667-16.5h-2a1.5 1.5 0 0 1 -1.171-2.437l3.383-4.23h-4.879a1.5 1.5 0 0 1 0-3h5.919a2.5 2.5 0 0 1 1.952 4.063l-2.171 2.715a4.834 4.834 0 0 1 -1.032 9.556h-4.668a1.5 1.5 0 0 1 0-3h4.667a1.834 1.834 0 0 0 0-3.667z"/><path d="m18 82a18 18 0 1 0 -18-18 18.021 18.021 0 0 0 18 18zm0-26.167h.021a4.749 4.749 0 0 1 4.336 2.815 5.08 5.08 0 0 1 -.734 5.43l-4.361 5.089h4.738a1.5 1.5 0 0 1 0 3h-8a1.5 1.5 0 0 1 -1.139-2.477l6.486-7.566a2.053 2.053 0 0 0 .287-2.217 1.762 1.762 0 0 0 -1.618-1.074h-.009a2.5 2.5 0 0 0 -2.507 2.5 1.5 1.5 0 0 1 -3 0 5.507 5.507 0 0 1 5.5-5.5z"/><path d="m18 36a18 18 0 1 0 -18-18 18.021 18.021 0 0 0 18 18zm-4.2-20.233 4-5.334a1.5 1.5 0 0 1 2.7.9v13.334a1.5 1.5 0 0 1 -3 0v-8.834l-1.3 1.734a1.5 1.5 0 1 1 -2.4-1.8z"/></g></g></svg>