<?xml version="1.0" encoding="UTF-8"?>
<svg width="1200pt" height="1200pt" version="1.1" viewBox="0 0 1200 1200" xmlns="http://www.w3.org/2000/svg">
 <path d="m1131.2 495.74c-7.3125-8.25-16.5-14.25-26.625-18.188v-102.94c0-37.5-30.562-68.25-68.062-68.25h-435.56c-6.5625 0-12.75-3-16.875-8.25l-86.812-112.5c-12.75-16.688-33-26.625-54-26.625h-279.74c-37.5 0-68.062 30.562-68.062 68.25v250.31c-10.125 3.9375-19.312 9.9375-26.625 18.188-12.938 14.438-19.125 33.938-16.688 53.25l65.062 544.5c4.125 34.125 33.188 60 67.688 60h830.26c34.5 0 63.562-25.875 67.688-60l65.062-544.5c2.4375-19.312-3.75-38.812-16.688-53.25zm-988.87-268.5c0-11.812 9.5625-21.375 21.188-21.375h279.74c6.5625 0 12.938 3.1875 16.875 8.25l86.812 112.69c12.938 16.5 33 26.438 54 26.438h435.56c11.625 0 21.188 9.5625 21.188 21.375v98.062h-915.37z"/>
</svg>
