<?xml version="1.0" encoding="UTF-8" standalone="no"?>
<!-- Generator: Adobe Illustrator 19.0.0, SVG Export Plug-In . SVG Version: 6.00 Build 0)  -->

<svg
   version="1.1"
   id="Capa_1"
   x="0px"
   y="0px"
   viewBox="0 0 477.972 477.972"
   style="enable-background:new 0 0 477.972 477.972;"
   xml:space="preserve"
   sodipodi:docname="pie-chart.svg"
   inkscape:version="1.3.2 (091e20e, 2023-11-25, custom)"
   xmlns:inkscape="http://www.inkscape.org/namespaces/inkscape"
   xmlns:sodipodi="http://sodipodi.sourceforge.net/DTD/sodipodi-0.dtd"
   xmlns="http://www.w3.org/2000/svg"
   xmlns:svg="http://www.w3.org/2000/svg"><defs
   id="defs19" /><sodipodi:namedview
   id="namedview19"
   pagecolor="#ffffff"
   bordercolor="#000000"
   borderopacity="0.25"
   inkscape:showpageshadow="2"
   inkscape:pageopacity="0.0"
   inkscape:pagecheckerboard="0"
   inkscape:deskcolor="#d1d1d1"
   inkscape:zoom="1.7009365"
   inkscape:cx="238.98599"
   inkscape:cy="238.98599"
   inkscape:window-width="1920"
   inkscape:window-height="1009"
   inkscape:window-x="3832"
   inkscape:window-y="-7"
   inkscape:window-maximized="1"
   inkscape:current-layer="Capa_1" />
















<g
   id="g20"
   transform="matrix(-1,0,0,1,477.97174,0)"><g
     id="g2">
	<g
   id="g1">
		<path
   d="M 203.601,181.455 135.608,10.788 C 132.12,2.031 122.194,-2.24 113.437,1.248 c -0.452,0.18 -0.896,0.379 -1.33,0.597 -52.475,26.442 -92.431,72.48 -111.224,128.154 -2.985,8.94 1.842,18.608 10.782,21.594 0.137,0.046 0.275,0.09 0.413,0.132 l 170.667,52.361 c 1.621,0.492 3.306,0.745 5,0.751 9.426,0 17.066,-7.642 17.066,-17.067 0.001,-2.164 -0.41,-4.306 -1.21,-6.315 z"
   id="path1" />
	</g>
</g><g
     id="g4">
	<g
   id="g3">
		<path
   d="M 477.798,247.336 C 473.124,128.244 375.196,34.122 256.013,34.169 c -19.165,0.053 -38.242,2.606 -56.747,7.595 -9.214,2.32 -14.802,11.669 -12.482,20.883 0.008,0.031 0.016,0.061 0.023,0.092 l 37.205,139.537 c 2.427,9.108 -2.989,18.459 -12.097,20.885 -2.979,0.794 -6.118,0.766 -9.083,-0.081 L 64.012,183.417 C 54.96,180.84 45.53,186.078 42.935,195.125 8.841,312.368 76.247,435.052 193.49,469.146 c 23.144,6.73 47.232,9.63 71.312,8.586 122.44,-4.805 217.801,-107.957 212.996,-230.396 z"
   id="path2" />
	</g>
</g><g
     id="g5">
</g><g
     id="g6">
</g><g
     id="g7">
</g><g
     id="g8">
</g><g
     id="g9">
</g><g
     id="g10">
</g><g
     id="g11">
</g><g
     id="g12">
</g><g
     id="g13">
</g><g
     id="g14">
</g><g
     id="g15">
</g><g
     id="g16">
</g><g
     id="g17">
</g><g
     id="g18">
</g><g
     id="g19">
</g></g>
</svg>
