<svg id="Layer_1" enable-background="new 0 0 512 512" height="512" viewBox="0 0 512 512" width="512" xmlns="http://www.w3.org/2000/svg"><g id="Layer_2_00000078040077122692611110000004171345139957131693_"><g id="up_and_down"><path d="m236.6 168.5c0 23.4-19 42.4-42.4 42.4h-11.9v131.1c0 23.4-19 42.3-42.3 42.3h-43.2c-23.4 0-42.3-19-42.3-42.3v-131.1h-12.1c-23.4 0-42.4-18.9-42.4-42.3 0-9 2.9-17.8 8.2-25.1l75.6-103c13.8-18.9 40.3-23 59.1-9.2 3.4 2.5 6.5 5.6 9 9l76.3 103c5.6 7.3 8.5 16.1 8.4 25.2z"/><path d="m512 343.5c0-23.4-19-42.4-42.4-42.4h-11.9v-131.1c0-23.4-19-42.3-42.3-42.3h-43.3c-23.4 0-42.3 19-42.3 42.3v131.1h-12.1c-23.4 0-42.3 19-42.4 42.4 0 9 2.9 17.8 8.2 25l75.6 103c13.8 18.8 40.3 22.9 59.2 9.1 3.4-2.5 6.4-5.5 9-8.9l76.3-103c5.5-7.3 8.4-16.1 8.4-25.2z"/></g></g></svg>