<svg height="512" viewBox="0 0 64 64" width="512" xmlns="http://www.w3.org/2000/svg"><g id="Tools-2" data-name="Tools"><path d="m52.947 49.293 4.411 4.412a7.993 7.993 0 0 0 -8.682-10.012 4.956 4.956 0 0 1 -4.157-1.421l-8.359-8.358-4.246 4.246 8.363 8.363a4.959 4.959 0 0 1 1.416 4.158 7.993 7.993 0 0 0 10.007 8.678l-4.411-4.412a1 1 0 0 1 -.289-.707v-4.24a1 1 0 0 1 1-1h4.24a1 1 0 0 1 .707.293z"/><path d="m9.053 16.707-4.412-4.407a7.994 7.994 0 0 0 8.683 10.011 5.208 5.208 0 0 1 .633-.039 4.924 4.924 0 0 1 3.524 1.459l7.359 7.359 4.246-4.246-7.363-7.363a4.953 4.953 0 0 1 -1.416-4.158 7.994 7.994 0 0 0 -10.007-8.682l4.411 4.412a1 1 0 0 1 .289.707v4.24a1 1 0 0 1 -1 1h-4.24a1 1 0 0 1 -.707-.293z"/><path d="m10.443 56.8 30.751-30.748-4.246-4.246-30.748 30.751a3 3 0 0 0 4.243 4.243z"/><path d="m57.31 21.584-2.487.5a1 1 0 0 1 -.9-.273l-2.123-2.125a1 1 0 0 1 0-1.414l2.122-2.121-5.638-5.637a8.979 8.979 0 0 0 -4.6-2.462l-14.184-2.837-.055.055 7.938 3.969a5 5 0 0 1 1.3 8.008l-1.732 1.73 7.072 7.071 2.12-2.119a1 1 0 0 1 1.414 0l2.121 2.121a1 1 0 0 1 .273.9l-.5 2.485a1 1 0 0 0 .274.9l1.364 1.364 8.485-8.485-1.364-1.365a1 1 0 0 0 -.9-.265z"/></g></svg>