<?xml version="1.0" encoding="UTF-8" standalone="no"?>
<svg
   height="682pt"
   viewBox="-103 -21 682 682.66669"
   width="682pt"
   version="1.1"
   id="svg4"
   sodipodi:docname="1533143-card-entertainment-trading card-geek-collector-cultures-nerd-gaming-game.svg"
   inkscape:version="1.3.2 (091e20e, 2023-11-25, custom)"
   xmlns:inkscape="http://www.inkscape.org/namespaces/inkscape"
   xmlns:sodipodi="http://sodipodi.sourceforge.net/DTD/sodipodi-0.dtd"
   xmlns="http://www.w3.org/2000/svg"
   xmlns:svg="http://www.w3.org/2000/svg">
  <defs
     id="defs4">
    <inkscape:path-effect
       effect="fillet_chamfer"
       id="path-effect7"
       is_visible="true"
       lpeversion="1"
       nodesatellites_param="F,0,0,1,0,3.75,0,1 @ F,0,0,1,0,3.75,0,1 @ F,0,0,1,0,3.75,0,1 @ F,0,0,1,0,3.75,0,1 @ F,0,0,1,0,3.75,0,1 @ F,0,0,1,0,3.75,0,1 | F,0,0,1,0,0,0,1"
       radius="5"
       unit="px"
       method="auto"
       mode="F"
       chamfer_steps="1"
       flexible="false"
       use_knot_distance="true"
       apply_no_radius="true"
       apply_with_radius="true"
       only_selected="false"
       hide_knots="false" />
    <inkscape:path-effect
       effect="fillet_chamfer"
       id="path-effect6"
       is_visible="true"
       lpeversion="1"
       nodesatellites_param="F,0,0,1,0,3.75,0,1 @ F,0,0,1,0,3.75,0,1 @ F,0,0,1,0,3.75,0,1 @ F,0,0,1,0,3.75,0,1 | F,0,0,1,0,0,0,1"
       radius="5"
       unit="px"
       method="auto"
       mode="F"
       chamfer_steps="1"
       flexible="false"
       use_knot_distance="true"
       apply_no_radius="true"
       apply_with_radius="true"
       only_selected="false"
       hide_knots="false" />
    <inkscape:path-effect
       effect="fillet_chamfer"
       id="path-effect5"
       is_visible="true"
       lpeversion="1"
       nodesatellites_param="F,0,0,1,0,3.75,0,1 @ F,0,0,1,0,3.75,0,1 @ F,0,0,1,0,3.75,0,1 @ F,0,0,1,0,3.75,0,1 | F,0,0,1,0,0,0,1"
       radius="5"
       unit="px"
       method="auto"
       mode="F"
       chamfer_steps="1"
       flexible="false"
       use_knot_distance="true"
       apply_no_radius="true"
       apply_with_radius="true"
       only_selected="false"
       hide_knots="false" />
    <inkscape:path-effect
       effect="fillet_chamfer"
       id="path-effect4"
       is_visible="true"
       lpeversion="1"
       nodesatellites_param="F,0,0,1,0,3.75,0,1 @ F,0,0,1,0,3.75,0,1 @ F,0,0,1,0,3.75,0,1 @ F,0,0,1,0,3.75,0,1 | F,0,0,1,0,3.75,0,1 @ F,0,0,1,0,3.75,0,1 @ F,0,0,1,0,3.75,0,1 @ F,0,0,1,0,3.75,0,1 @ F,0,0,1,0,3.75,0,1 @ F,0,0,1,0,3.75,0,1 @ F,0,0,1,0,3.75,0,1 @ F,0,0,1,0,3.75,0,1 @ F,0,0,1,0,3.75,0,1 @ F,0,0,1,0,3.75,0,1 @ F,0,0,1,0,3.75,0,1 @ F,0,0,1,0,3.75,0,1 | F,0,0,1,0,3.75,0,1 @ F,0,0,1,0,3.75,0,1 @ F,0,0,1,0,3.75,0,1 @ F,0,0,1,0,3.75,0,1"
       radius="5"
       unit="px"
       method="auto"
       mode="F"
       chamfer_steps="1"
       flexible="false"
       use_knot_distance="true"
       apply_no_radius="true"
       apply_with_radius="true"
       only_selected="false"
       hide_knots="false" />
  </defs>
  <sodipodi:namedview
     id="namedview4"
     pagecolor="#ffffff"
     bordercolor="#000000"
     borderopacity="0.25"
     inkscape:showpageshadow="2"
     inkscape:pageopacity="0.0"
     inkscape:pagecheckerboard="0"
     inkscape:deskcolor="#d1d1d1"
     inkscape:document-units="pt"
     inkscape:zoom="0.89406158"
     inkscape:cx="454.66667"
     inkscape:cy="454.66667"
     inkscape:window-width="1872"
     inkscape:window-height="1009"
     inkscape:window-x="1912"
     inkscape:window-y="-7"
     inkscape:window-maximized="1"
     inkscape:current-layer="svg4" />
  <path
     d="M 466.08203,640 H 73.582031 a 3.75,3.75 45 0 1 -3.75,-3.75 v -30 a 3.75,3.75 135 0 1 3.75,-3.75 H 428.58203 a 3.75,3.75 135 0 0 3.75,-3.75 v -520 a 3.75,3.75 135 0 1 3.75,-3.75 h 30 a 3.75,3.75 45 0 1 3.75,3.75 v 557.5 a 3.75,3.75 135 0 1 -3.75,3.75 z M 0,0"
     id="path1"
     inkscape:path-effect="#path-effect7"
     inkscape:original-d="m469.832031 640h-400v-37.5h362.5v-527.5h37.5zm0 0" />
  <path
     d="M 73.582031,452.5 H 278.58203 a 3.75,3.75 45 0 1 3.75,3.75 v 30 a 3.75,3.75 135 0 1 -3.75,3.75 l -204.999999,0 a 3.75,3.75 45 0 1 -3.75,-3.75 l 0,-30 a 3.75,3.75 135 0 1 3.75,-3.75 z M 0,0"
     id="path2"
     inkscape:path-effect="#path-effect6"
     inkscape:original-d="m69.832031 452.5h212.5v37.5h-212.5zm0 0" />
  <path
     d="M 73.582031,377.5 H 316.08203 a 3.75,3.75 45 0 1 3.75,3.75 l 0,30 a 3.75,3.75 135 0 1 -3.75,3.75 H 73.582031 a 3.75,3.75 45 0 1 -3.75,-3.75 l 0,-30 a 3.75,3.75 135 0 1 3.75,-3.75 z M 0,0"
     id="path3"
     inkscape:path-effect="#path-effect5"
     inkscape:original-d="m69.832031 377.5h250v37.5h-250zm0 0" />
  <path
     d="m -5.167969,3.75 v 557.5 a 3.75,3.75 45 0 0 3.75,3.75 l 392.499999,0 a 3.75,3.75 135 0 0 3.75,-3.75 l 0,-557.5 A 3.75,3.75 45 0 0 391.08203,0 H -1.417969 a 3.75,3.75 135 0 0 -3.75,3.75 z m 135.921129,75.026703 92.80618,92.809877 a 3.7499255,3.7499255 5.6938771e-4 0 0 5.30325,5e-5 l 21.21623,-21.21623 c 1.46447,-1.46447 3.83866,-1.46429 5.30291,3.9e-4 7.06973,7.07182 14.13947,14.14363 21.2092,21.21545 1.46425,1.46468 1.46408,3.83922 -3.9e-4,5.30369 l -21.20842,21.20842 a 3.7502068,3.7502068 90.00158 0 0 -1.5e-4,5.30345 l 30.05247,30.05577 a 3.7499311,3.7499311 90.003687 0 1 -3.5e-4,5.30326 l -21.21583,21.21271 a 3.7502758,3.7502758 0.00210665 0 1 -5.3035,-1.9e-4 l -30.05217,-30.05217 a 3.75,3.75 180 0 0 -5.3033,0 l -21.21233,21.21233 c -1.46447,1.46447 -3.83883,1.46447 -5.3033,0 -7.07077,-7.07078 -14.14155,-14.14155 -21.21232,-21.21233 -1.46447,-1.46447 -1.46455,-3.83892 -1.9e-4,-5.3035 7.0709,-7.07194 14.1418,-14.14389 21.2127,-21.21583 1.46436,-1.46458 1.46425,-3.83901 -2.4e-4,-5.30345 -30.93663,-30.93539 -61.87325,-61.87078 -92.80988,-92.80617 -1.46449,-1.46444 -1.46443,-3.8387 1.5e-4,-5.303056 7.07194,-7.070906 14.14389,-14.141812 21.21583,-21.212718 1.46458,-1.464359 3.83901,-1.464248 5.30345,2.47e-4 z M 353.58203,527.5 H 36.082031 a 3.75,3.75 45 0 1 -3.75,-3.75 v -180 a 3.75,3.75 135 0 1 3.75,-3.75 H 353.58203 a 3.75,3.75 45 0 1 3.75,3.75 v 180 a 3.75,3.75 135 0 1 -3.75,3.75 z"
     id="path4"
     inkscape:path-effect="#path-effect4"
     inkscape:original-d="m -5.167969,0 c 0,188.33333 0,376.66667 0,565 133.333329,0 266.666669,0 399.999999,0 0,-188.33333 0,-376.66667 0,-565 C 261.4987,0 128.16536,0 -5.167969,0 Z M 128.10156,76.125 c 32.70313,32.70443 65.40625,65.40885 98.10938,98.11328 8.83984,-8.83984 17.67969,-17.67969 26.51953,-26.51953 8.83724,8.83984 17.67448,17.67969 26.51172,26.51953 -8.83724,8.83724 -17.67448,17.67448 -26.51172,26.51172 11.78516,11.78646 23.57031,23.57291 35.35547,35.35937 -8.83984,8.83854 -17.67969,17.67709 -26.51953,26.51563 -11.78516,-11.78516 -23.57031,-23.57031 -35.35547,-35.35547 -8.83854,8.83854 -17.67709,17.67709 -26.51563,26.51563 -8.83854,-8.83854 -17.67708,-17.67709 -26.51562,-26.51563 8.83854,-8.83984 17.67708,-17.67969 26.51562,-26.51953 -32.70443,-32.70312 -65.40885,-65.40625 -98.11328,-98.10937 8.83984,-8.838543 17.67969,-17.677087 26.51953,-26.51563 z M 357.33203,527.5 c -108.33333,0 -216.66667,0 -324.999999,0 0,-62.5 0,-125 0,-187.5 108.333329,0 216.666669,0 324.999999,0 0,62.5 0,125 0,187.5 z" />
</svg>
