<svg height="512pt" viewBox="-61 0 512 512" width="512pt" xmlns="http://www.w3.org/2000/svg"><path d="m342.070312 66.957031c-37.074218-42.554687-90.675781-66.957031-147.070312-66.957031-107.519531 0-195 87.480469-195 195v122c0 107.519531 87.480469 195 195 195s195-87.480469 195-195v-122c0-24.402344-4.453125-48.222656-13.257812-70.796875-3.003907-7.71875-11.730469-11.558594-19.421876-8.523437-7.722656 3.003906-11.53125 11.703124-8.527343 19.421874 7.441406 19.074219 11.207031 39.230469 11.207031 59.898438v122c0 90.980469-74.019531 165-165 165s-165-74.019531-165-165v-122c0-90.980469 74.019531-165 165-165 47.710938 0 93.074219 20.652344 124.453125 56.675781 5.433594 6.226563 14.925781 6.855469 21.167969 1.449219 6.238281-5.433594 6.898437-14.910156 1.449218-21.167969zm0 0"/><path d="m75 302c-8.289062 0-15 6.710938-15 15 0 74.441406 60.558594 135 135 135s135-60.558594 135-135c0-5.617188 0-129.796875 0-122 0-74.441406-60.558594-135-135-135s-135 60.558594-135 135v61c0 8.289062 6.710938 15 15 15s15-6.710938 15-15v-61c0-57.890625 47.109375-105 105-105s105 47.109375 105 105c0 42.742188 0 125.078125 0 122 0 57.890625-47.109375 105-105 105s-105-47.109375-105-105c0-8.289062-6.710938-15-15-15zm0 0"/><path d="m232.734375 170.492188c4.527344 6.929687 13.828125 8.894531 20.757813 4.351562 6.929687-4.527344 8.890624-13.8125 4.351562-20.757812-13.933594-21.34375-37.429688-34.085938-62.84375-34.085938-41.351562 0-75 33.648438-75 75v122c0 41.351562 33.648438 75 75 75s75-33.648438 75-75v-79.578125c0-8.289063-6.710938-15-15-15s-15 6.710937-15 15v79.578125c0 24.8125-20.1875 45-45 45s-45-20.1875-45-45v-122c0-24.8125 20.1875-45 45-45 15.25 0 29.355469 7.660156 37.734375 20.492188zm0 0"/><path d="m180 195v122c0 8.285156 6.714844 15 15 15s15-6.714844 15-15v-122c0-8.285156-6.714844-15-15-15s-15 6.714844-15 15zm0 0"/></svg>