<?xml version="1.0" encoding="UTF-8"?>
<svg width="1200pt" height="1200pt" version="1.1" viewBox="0 0 1200 1200" xmlns="http://www.w3.org/2000/svg">
 <path d="m706.12 281.62c-6.9844-7.0273-10.906-16.531-10.906-26.438s3.9219-19.41 10.906-26.438l72.375-72.375c36.125-36.762 84.992-58.238 136.5-60 33.242-1.1914 66.168 6.793 95.172 23.078s52.965 40.246 69.25 69.25 24.27 61.93 23.078 95.172c-1.7617 51.508-23.238 100.38-60 136.5l-71.25 73.5c-7.0781 7.0195-16.656 10.934-26.625 10.875-9.8359-0.042969-19.266-3.9453-26.25-10.875-6.9844-7.0273-10.906-16.531-10.906-26.438s3.9219-19.41 10.906-26.438l72.375-72.75c22.859-22.734 36.258-53.285 37.5-85.5 1.3984-29.98-9.7422-59.191-30.75-80.625-21.582-20.777-50.688-31.879-80.625-30.75-32.215 1.2422-62.766 14.641-85.5 37.5l-72.375 72.75c-7.0273 6.9844-16.531 10.906-26.438 10.906s-19.41-3.9219-26.438-10.906zm-265.12 637.5-72.75 71.625c-22.734 22.859-53.285 36.258-85.5 37.5-30.41 2.0117-60.207-9.1914-81.758-30.742-21.551-21.551-32.754-51.348-30.742-81.758 1.2422-32.215 14.641-62.766 37.5-85.5l72.375-72.75c6.9844-7.0273 10.906-16.531 10.906-26.438s-3.9219-19.41-10.906-26.438c-7.0273-6.9844-16.531-10.906-26.438-10.906s-19.41 3.9219-26.438 10.906l-70.875 73.875c-36.762 36.125-58.238 84.992-60 136.5-1.2227 32.652 6.4297 65.027 22.145 93.68 15.715 28.648 38.902 52.504 67.094 69.023 28.191 16.523 60.336 25.09 93.012 24.797h6.375c51.508-1.7617 100.38-23.238 136.5-60l72.375-72.375c6.9844-7.0273 10.906-16.531 10.906-26.438s-3.9219-19.41-10.906-26.438c-7.1719-6.8359-16.762-10.555-26.668-10.348-9.9102 0.21094-19.332 4.3359-26.207 11.473zm397.5-610.88-530.25 530.25c-7.0977 7.043-11.094 16.625-11.094 26.625s3.9961 19.582 11.094 26.625c7.0781 7.0195 16.656 10.934 26.625 10.875 9.9688 0.058594 19.547-3.8555 26.625-10.875l530.25-530.25c9.5117-9.5117 13.227-23.375 9.7461-36.371-3.4805-12.992-13.633-23.145-26.625-26.625-12.996-3.4805-26.859 0.23438-36.371 9.7461zm-132.38 344.62c-9.5117-9.5117-23.375-13.227-36.371-9.7461-12.992 3.4805-23.145 13.633-26.625 26.625-3.4805 12.996 0.23438 26.859 9.7461 36.371l212.25 212.25c7.0781 7.0195 16.656 10.934 26.625 10.875 9.9688 0.058594 19.547-3.8555 26.625-10.875 7.0977-7.043 11.094-16.625 11.094-26.625s-3.9961-19.582-11.094-26.625zm-106.12 97.125c-9.9453 0-19.484 3.9492-26.516 10.984-7.0352 7.0312-10.984 16.57-10.984 26.516v262.5c0 13.398 7.1484 25.777 18.75 32.477 11.602 6.6992 25.898 6.6992 37.5 0 11.602-6.6992 18.75-19.078 18.75-32.477v-262.5c0-9.9453-3.9492-19.484-10.984-26.516-7.0312-7.0352-16.57-10.984-26.516-10.984zm450-187.5h-262.5c-13.398 0-25.777 7.1484-32.477 18.75-6.6992 11.602-6.6992 25.898 0 37.5 6.6992 11.602 19.078 18.75 32.477 18.75h262.5c13.398 0 25.777-7.1484 32.477-18.75 6.6992-11.602 6.6992-25.898 0-37.5-6.6992-11.602-19.078-18.75-32.477-18.75zm-556.12-15.375c7.0781 7.0195 16.656 10.934 26.625 10.875 9.9688 0.058594 19.547-3.8555 26.625-10.875 7.0977-7.043 11.094-16.625 11.094-26.625s-3.9961-19.582-11.094-26.625l-212.25-212.25c-9.5117-9.5117-23.375-13.227-36.371-9.7461-12.992 3.4805-23.145 13.633-26.625 26.625-3.4805 12.996 0.23438 26.859 9.7461 36.371zm-343.88 90.375h262.5c13.398 0 25.777-7.1484 32.477-18.75 6.6992-11.602 6.6992-25.898 0-37.5-6.6992-11.602-19.078-18.75-32.477-18.75h-262.5c-13.398 0-25.777 7.1484-32.477 18.75-6.6992 11.602-6.6992 25.898 0 37.5 6.6992 11.602 19.078 18.75 32.477 18.75zm450-187.5c9.9453 0 19.484-3.9492 26.516-10.984 7.0352-7.0312 10.984-16.57 10.984-26.516v-262.5c0-13.398-7.1484-25.777-18.75-32.477-11.602-6.6992-25.898-6.6992-37.5 0-11.602 6.6992-18.75 19.078-18.75 32.477v262.5c0 9.9453 3.9492 19.484 10.984 26.516 7.0312 7.0352 16.57 10.984 26.516 10.984z"/>
</svg>
