<svg id="Layer_1" enable-background="new 0 0 512 512" height="512" viewBox="0 0 512 512" width="512" xmlns="http://www.w3.org/2000/svg"><g id="Layer_2_00000111876129534530335130000017802684315469108106_"><g id="eye"><path d="m489.9 206c-50.1-47.8-136.2-112.8-233.9-112.8s-183.8 65-233.9 112.8c-29.5 28.2-29.5 71.7 0 99.9 50.1 47.9 136.2 112.9 233.9 112.9s183.8-65 233.9-112.9c29.5-28.1 29.5-71.7 0-99.9zm-233.9 153.9c-57.4 0-103.9-46.5-103.9-103.9s46.5-103.9 103.9-103.9 103.9 46.5 103.9 103.9c0 57.4-46.5 103.8-103.9 103.9z"/><circle cx="256" cy="256" r="62.1"/></g></g></svg>