<?xml version="1.0" encoding="UTF-8" standalone="no"?>
<svg
   id="Layer_1"
   enable-background="new 0 0 512 512"
   height="512"
   viewBox="0 0 512 512"
   width="512"
   version="1.1"
   sodipodi:docname="2384160-shield-security-vikings-viking-protection-medieval.svg"
   inkscape:version="1.3.2 (091e20e, 2023-11-25, custom)"
   xmlns:inkscape="http://www.inkscape.org/namespaces/inkscape"
   xmlns:sodipodi="http://sodipodi.sourceforge.net/DTD/sodipodi-0.dtd"
   xmlns="http://www.w3.org/2000/svg"
   xmlns:svg="http://www.w3.org/2000/svg">
  <defs
     id="defs4">
    <inkscape:path-effect
       effect="fillet_chamfer"
       id="path-effect7"
       is_visible="true"
       lpeversion="1"
       nodesatellites_param="F,0,0,1,0,5,0,1 @ F,0,0,1,0,5,0,1 @ F,0,0,1,0,5,0,1 @ F,0,0,1,0,5,0,1 @ F,0,0,1,0,5,0,1 @ F,0,0,1,0,5,0,1 @ F,0,0,1,0,5,0,1"
       radius="5"
       unit="px"
       method="auto"
       mode="F"
       chamfer_steps="1"
       flexible="false"
       use_knot_distance="true"
       apply_no_radius="true"
       apply_with_radius="true"
       only_selected="false"
       hide_knots="false" />
    <inkscape:path-effect
       effect="fillet_chamfer"
       id="path-effect6"
       is_visible="true"
       lpeversion="1"
       nodesatellites_param="F,0,0,1,0,5,0,1 @ F,0,0,1,0,5,0,1 @ F,0,0,1,0,5,0,1 @ F,0,0,1,0,5,0,1 @ F,0,0,1,0,5,0,1 @ F,0,0,1,0,5,0,1 @ F,0,0,1,0,5,0,1"
       radius="5"
       unit="px"
       method="auto"
       mode="F"
       chamfer_steps="1"
       flexible="false"
       use_knot_distance="true"
       apply_no_radius="true"
       apply_with_radius="true"
       only_selected="false"
       hide_knots="false" />
    <inkscape:path-effect
       effect="fillet_chamfer"
       id="path-effect5"
       is_visible="true"
       lpeversion="1"
       nodesatellites_param="F,0,0,1,0,5,0,1 @ F,0,0,1,0,5,0,1 @ F,0,0,1,0,5,0,1 @ F,0,0,1,0,5,0,1 @ F,0,0,1,0,5,0,1"
       radius="5"
       unit="px"
       method="auto"
       mode="F"
       chamfer_steps="1"
       flexible="false"
       use_knot_distance="true"
       apply_no_radius="true"
       apply_with_radius="true"
       only_selected="false"
       hide_knots="false" />
    <inkscape:path-effect
       effect="fillet_chamfer"
       id="path-effect4"
       is_visible="true"
       lpeversion="1"
       nodesatellites_param="F,0,0,1,0,5,0,1 @ F,0,0,1,0,5,0,1 @ F,0,0,1,0,5,0,1 @ F,0,0,1,0,5,0,1"
       radius="5"
       unit="px"
       method="auto"
       mode="F"
       chamfer_steps="1"
       flexible="false"
       use_knot_distance="true"
       apply_no_radius="true"
       apply_with_radius="true"
       only_selected="false"
       hide_knots="false" />
    <inkscape:path-effect
       effect="fillet_chamfer"
       id="path-effect4-4"
       is_visible="true"
       lpeversion="1"
       nodesatellites_param="F,0,0,1,0,5,0,1 @ F,0,0,1,0,5,0,1 @ F,0,0,1,0,5,0,1 @ F,0,0,1,0,5,0,1"
       radius="5"
       unit="px"
       method="auto"
       mode="F"
       chamfer_steps="1"
       flexible="false"
       use_knot_distance="true"
       apply_no_radius="true"
       apply_with_radius="true"
       only_selected="false"
       hide_knots="false" />
    <inkscape:path-effect
       effect="fillet_chamfer"
       id="path-effect7-0"
       is_visible="true"
       lpeversion="1"
       nodesatellites_param="F,0,0,1,0,5,0,1 @ F,0,0,1,0,5,0,1 @ F,0,0,1,0,5,0,1 @ F,0,0,1,0,5,0,1 @ F,0,0,1,0,5,0,1 @ F,0,0,1,0,5,0,1 @ F,0,0,1,0,5,0,1"
       radius="5"
       unit="px"
       method="auto"
       mode="F"
       chamfer_steps="1"
       flexible="false"
       use_knot_distance="true"
       apply_no_radius="true"
       apply_with_radius="true"
       only_selected="false"
       hide_knots="false" />
  </defs>
  <sodipodi:namedview
     id="namedview4"
     pagecolor="#ffffff"
     bordercolor="#000000"
     borderopacity="0.25"
     inkscape:showpageshadow="2"
     inkscape:pageopacity="0.0"
     inkscape:pagecheckerboard="0"
     inkscape:deskcolor="#d1d1d1"
     inkscape:zoom="1.5878906"
     inkscape:cx="256"
     inkscape:cy="256"
     inkscape:window-width="1920"
     inkscape:window-height="1009"
     inkscape:window-x="1912"
     inkscape:window-y="-7"
     inkscape:window-maximized="1"
     inkscape:current-layer="Layer_1" />
  <g
     id="g4">
    <path
       d="m 57.234,237.447 h 178.11 a 5,5 135 0 0 5,-5 V 5.458 c 0,-2.7614237 -1.16526,-3.08778 -2.68666,-0.7834095 C 201.97251,58.724159 127.9459,97.548941 56.361505,99.289042 c -2.76054,0.0671 -7.305514,-0.01132 -9.913383,0.859678 -1.119868,0.37403 -2.193613,0.87474 -3.199913,1.49219 -2.343489,1.43793 -5.307926,4.97109 -6.316994,7.5287 -0.43331,1.09828 -0.739927,2.24267 -0.913795,3.41045 -0.4049,2.71951 0.455355,7.1825 0.934934,9.90196 l 19.205292,108.90396 c 0.479579,2.71946 0.963617,5.43268 1.076354,6.06102 z"
       id="path1"
       inkscape:path-effect="#path-effect7"
       inkscape:original-d="m 57.026,236.31 c 0.067,0.38 0.14,0.758 0.208,1.137 h 183.11 V 0.458 C 205.012,57.972 126.32,99.35 51.362,99.35 c -4.586,0 -8.937,2.029 -11.884,5.542 -2.948,3.513 -4.19,8.15 -3.394,12.666 z" />
    <path
       d="m 57.234,237.447 h 178.11 a 5,5 135 0 0 5,-5 V 5.458 c 0,-2.7614237 -1.16526,-3.08778 -2.68666,-0.7834095 C 201.97251,58.724159 127.9459,97.548941 56.361505,99.289042 c -2.76054,0.0671 -7.305514,-0.01132 -9.913383,0.859678 -1.119868,0.37403 -2.193613,0.87474 -3.199913,1.49219 -2.343489,1.43793 -5.307926,4.97109 -6.316994,7.5287 -0.43331,1.09828 -0.739927,2.24267 -0.913795,3.41045 -0.4049,2.71951 0.455355,7.1825 0.934934,9.90196 l 19.205292,108.90396 c 0.479579,2.71946 0.963617,5.43268 1.076354,6.06102 z"
       id="path1-3"
       inkscape:path-effect="#path-effect7-0"
       inkscape:original-d="m 57.026,236.31 c 0.067,0.38 0.14,0.758 0.208,1.137 h 183.11 V 0.458 C 205.012,57.972 126.32,99.35 51.362,99.35 c -4.586,0 -8.937,2.029 -11.884,5.542 -2.948,3.513 -4.19,8.15 -3.394,12.666 z"
       transform="matrix(-1.0013948,0,0,1,512.05023,-0.45486226)" />
    <path
       d="M 235.344,268.475 H 68.898 c -2.761424,0 -4.455877,2.17153 -3.750778,4.8414 11.420203,43.24287 29.011996,83.09018 52.521818,118.88637 1.51589,2.30811 4.02242,6.01813 5.59803,8.28591 29.32794,42.21171 67.24908,78.6928 112.88073,108.61056 2.30932,1.51408 4.1962,0.48018 4.1962,-2.28124 l 0,-233.343 a 5,5 45 0 0 -5,-5 z"
       id="path4"
       inkscape:path-effect="#path-effect4"
       inkscape:original-d="m240.344 268.475h-176.446c11.795 46.806 30.748 89.708 56.543 127.889 30.58 45.262 70.901 84.08 119.903 115.454z" />
    <path
       d="M 235.344,268.475 H 68.898 c -2.761424,0 -4.455877,2.17153 -3.750778,4.8414 11.420203,43.24287 29.011996,83.09018 52.521818,118.88637 1.51589,2.30811 4.02242,6.01813 5.59803,8.28591 29.32794,42.21171 67.24908,78.6928 112.88073,108.61056 2.30932,1.51408 4.1962,0.48018 4.1962,-2.28124 l 0,-233.343 a 5,5 45 0 0 -5,-5 z"
       id="path4-4"
       inkscape:path-effect="#path-effect4-4"
       inkscape:original-d="M 240.344,268.475 H 63.898 c 11.795,46.806 30.748,89.708 56.543,127.889 30.58,45.262 70.901,84.08 119.903,115.454 z"
       transform="matrix(-1,0,0,1,511.715,-1.036)" />
  </g>
</svg>
